<svg width="33" height="48" viewBox="0 0 33 48" fill="none" xmlns="http://www.w3.org/2000/svg">
<path d="M4.208 37.7386C8.304 34.3253 11.568 31.4879 14 29.2266C16.432 26.9226 18.4587 24.5333 20.08 22.0586C21.7013 19.5839 22.512 17.1519 22.512 14.7626C22.512 12.5866 22 10.8799 20.976 9.64259C19.952 8.40525 18.3733 7.78658 16.24 7.78658C14.1067 7.78658 12.464 8.51192 11.312 9.96259C10.16 11.3706 9.56267 13.3119 9.52 15.7866H0.816C0.986667 10.6666 2.50133 6.78392 5.36 4.13858C8.26133 1.49325 11.9307 0.170582 16.368 0.170582C21.232 0.170582 24.9653 1.47192 27.568 4.07458C30.1707 6.63459 31.472 10.0266 31.472 14.2506C31.472 17.5786 30.576 20.7573 28.784 23.7866C26.992 26.8159 24.944 29.4613 22.64 31.7226C20.336 33.9413 17.328 36.6293 13.616 39.7866H32.496V47.2106H0.88V40.5546L4.208 37.7386Z" fill="#004AAD" fill-opacity="0.34"/>
</svg>
