<svg width="33" height="49" viewBox="0 0 33 49" fill="none" xmlns="http://www.w3.org/2000/svg">
<path d="M1.52 13.4826C1.73333 9.21592 3.22667 5.93058 6 3.62658C8.816 1.27992 12.5067 0.106583 17.072 0.106583C20.1867 0.106583 22.8533 0.66125 25.072 1.77058C27.2907 2.83725 28.9547 4.30925 30.064 6.18658C31.216 8.02125 31.792 10.1119 31.792 12.4586C31.792 15.1466 31.088 17.4293 29.68 19.3066C28.3147 21.1413 26.672 22.3786 24.752 23.0186V23.2746C27.2267 24.0426 29.1467 25.4079 30.512 27.3706C31.92 29.3333 32.624 31.8506 32.624 34.9226C32.624 37.4826 32.0267 39.7653 30.832 41.7706C29.68 43.7759 27.952 45.3546 25.648 46.5066C23.3867 47.6159 20.656 48.1706 17.456 48.1706C12.6347 48.1706 8.70933 46.9546 5.68 44.5226C2.65067 42.0906 1.05067 38.5066 0.88 33.7706H9.584C9.66933 35.8613 10.3733 37.5466 11.696 38.8266C13.0613 40.0639 14.9173 40.6826 17.264 40.6826C19.44 40.6826 21.104 40.0853 22.256 38.8906C23.4507 37.6533 24.048 36.0746 24.048 34.1546C24.048 31.5946 23.2373 29.7599 21.616 28.6506C19.9947 27.5413 17.4773 26.9866 14.064 26.9866H12.208V19.6266H14.064C20.1227 19.6266 23.152 17.5999 23.152 13.5466C23.152 11.7119 22.5973 10.2826 21.488 9.25858C20.4213 8.23458 18.864 7.72258 16.816 7.72258C14.8107 7.72258 13.2533 8.27725 12.144 9.38659C11.0773 10.4533 10.4587 11.8186 10.288 13.4826H1.52Z" fill="#004AAD" fill-opacity="0.34"/>
</svg>
