<svg width="33" height="47" viewBox="0 0 33 47" fill="none" xmlns="http://www.w3.org/2000/svg">
<path d="M29.752 7.93858H9.016V18.8826C9.912 17.7733 11.192 16.8773 12.856 16.1946C14.52 15.4693 16.2907 15.1066 18.168 15.1066C21.5813 15.1066 24.376 15.8533 26.552 17.3466C28.728 18.8399 30.3067 20.7599 31.288 23.1066C32.2693 25.4106 32.76 27.8853 32.76 30.5306C32.76 35.4373 31.352 39.3839 28.536 42.3706C25.7627 45.3573 21.7947 46.8506 16.632 46.8506C11.768 46.8506 7.88533 45.6346 4.984 43.2026C2.08267 40.7706 0.44 37.5919 0.0560002 33.6666H8.76C9.144 35.3733 9.99733 36.7386 11.32 37.7626C12.6853 38.7866 14.4133 39.2986 16.504 39.2986C19.0213 39.2986 20.92 38.5093 22.2 36.9306C23.48 35.3519 24.12 33.2613 24.12 30.6586C24.12 28.0133 23.4587 26.0079 22.136 24.6426C20.856 23.2346 18.9573 22.5306 16.44 22.5306C14.648 22.5306 13.1547 22.9786 11.96 23.8746C10.7653 24.7706 9.912 25.9653 9.4 27.4586H0.824V0.0665855H29.752V7.93858Z" fill="#004AAD" fill-opacity="0.34"/>
</svg>
