<svg width="34" height="48" viewBox="0 0 34 48" fill="none" xmlns="http://www.w3.org/2000/svg">
<path d="M23.584 12.8426C23.1573 11.0506 22.4107 9.70658 21.344 8.81059C20.32 7.91458 18.8267 7.46658 16.864 7.46658C13.92 7.46658 11.744 8.66125 10.336 11.0506C8.97067 13.3972 8.26667 17.2373 8.224 22.5706C9.248 20.8639 10.7413 19.5413 12.704 18.6026C14.6667 17.6213 16.8 17.1306 19.104 17.1306C21.8773 17.1306 24.3307 17.7279 26.464 18.9226C28.5973 20.1173 30.2613 21.8666 31.456 24.1706C32.6507 26.4319 33.248 29.1626 33.248 32.3626C33.248 35.3919 32.6293 38.1013 31.392 40.4906C30.1973 42.8373 28.4267 44.6719 26.08 45.9946C23.7333 47.3173 20.9387 47.9786 17.696 47.9786C13.2587 47.9786 9.76 46.9973 7.2 45.0346C4.68267 43.0719 2.912 40.3413 1.888 36.8426C0.906667 33.3013 0.416 28.9493 0.416 23.7866C0.416 15.9786 1.76 10.0906 4.448 6.12259C7.136 2.11192 11.3813 0.106583 17.184 0.106583C21.664 0.106583 25.1413 1.32258 27.616 3.75459C30.0907 6.18658 31.52 9.21592 31.904 12.8426H23.584ZM17.056 24.4906C14.7947 24.4906 12.896 25.1519 11.36 26.4746C9.824 27.7973 9.056 29.7173 9.056 32.2346C9.056 34.7519 9.76 36.7359 11.168 38.1866C12.6187 39.6373 14.6453 40.3626 17.248 40.3626C19.552 40.3626 21.3653 39.6586 22.688 38.2506C24.0533 36.8426 24.736 34.9439 24.736 32.5546C24.736 30.0799 24.0747 28.1173 22.752 26.6666C21.472 25.2159 19.5733 24.4906 17.056 24.4906Z" fill="#004AAD" fill-opacity="0.34"/>
</svg>
