<svg width="1612" height="575" viewBox="0 0 1612 575" fill="none" xmlns="http://www.w3.org/2000/svg">
<g clip-path="url(#clip0_1171_16315)">
<rect width="1612" height="575" rx="15" fill="#004AAD"/>
<rect width="15.0916" height="319.296" rx="7.54578" transform="matrix(-0.866671 0.49888 -0.694151 -0.71983 1829.25 539.095)" fill="#F1F1F1" fill-opacity="0.14"/>
<rect width="13.8091" height="348.028" rx="6.90455" transform="matrix(-0.644132 -0.764914 0.893472 -0.449118 1307.5 476.125)" fill="#F1F1F1" fill-opacity="0.14"/>
<rect width="15.0916" height="319.296" rx="7.54578" transform="matrix(-0.866671 0.49888 -0.694151 -0.71983 813.271 398.394)" fill="#F1F1F1" fill-opacity="0.14"/>
<rect width="13.8091" height="348.028" rx="6.90455" transform="matrix(-0.644132 -0.764914 0.893472 -0.449118 291.518 335.424)" fill="#F1F1F1" fill-opacity="0.14"/>
<rect width="15.0916" height="319.296" rx="7.54578" transform="matrix(-0.866671 0.49888 -0.694151 -0.71983 304.08 328.044)" fill="#F1F1F1" fill-opacity="0.14"/>
<rect width="13.8091" height="348.028" rx="6.90455" transform="matrix(-0.644132 -0.764914 0.893472 -0.449118 -217.674 265.074)" fill="#F1F1F1" fill-opacity="0.14"/>
<rect width="15.0916" height="319.296" rx="7.54578" transform="matrix(-0.866671 0.49888 -0.694151 -0.71983 1321.26 468.743)" fill="#F1F1F1" fill-opacity="0.14"/>
<rect width="13.8091" height="348.028" rx="6.90455" transform="matrix(-0.644132 -0.764914 0.893472 -0.449118 799.51 405.774)" fill="#F1F1F1" fill-opacity="0.14"/>
<rect width="15.0916" height="319.296" rx="7.54578" transform="matrix(-0.866671 0.49888 -0.694151 -0.71983 1818.47 721.448)" fill="#F1F1F1" fill-opacity="0.14"/>
<rect width="13.8091" height="348.028" rx="6.90455" transform="matrix(-0.644132 -0.764914 0.893472 -0.449118 1296.72 658.478)" fill="#F1F1F1" fill-opacity="0.14"/>
<rect width="15.0916" height="319.296" rx="7.54578" transform="matrix(-0.866671 0.49888 -0.694151 -0.71983 802.488 580.748)" fill="#F1F1F1" fill-opacity="0.14"/>
<rect width="13.8091" height="348.028" rx="6.90455" transform="matrix(-0.644132 -0.764914 0.893472 -0.449118 280.734 517.778)" fill="#F1F1F1" fill-opacity="0.14"/>
<rect width="15.0916" height="319.296" rx="7.54578" transform="matrix(-0.866671 0.49888 -0.694151 -0.71983 293.297 510.4)" fill="#F1F1F1" fill-opacity="0.14"/>
<rect width="13.8091" height="348.028" rx="6.90455" transform="matrix(-0.644132 -0.764914 0.893472 -0.449118 -228.457 447.43)" fill="#F1F1F1" fill-opacity="0.14"/>
<rect width="15.0916" height="319.296" rx="7.54578" transform="matrix(-0.866671 0.49888 -0.694151 -0.71983 1310.48 651.098)" fill="#F1F1F1" fill-opacity="0.14"/>
<rect width="13.8091" height="348.028" rx="6.90455" transform="matrix(-0.644132 -0.764914 0.893472 -0.449118 788.727 588.129)" fill="#F1F1F1" fill-opacity="0.14"/>
<rect width="15.0916" height="319.296" rx="7.54578" transform="matrix(-0.866671 0.49888 -0.694151 -0.71983 766.547 743.663)" fill="#F1F1F1" fill-opacity="0.14"/>
<rect width="13.8091" height="348.028" rx="6.90455" transform="matrix(-0.644132 -0.764914 0.893472 -0.449118 244.793 680.693)" fill="#F1F1F1" fill-opacity="0.14"/>
<rect width="15.0916" height="319.296" rx="7.54578" transform="matrix(-0.866671 0.49888 -0.694151 -0.71983 257.355 673.314)" fill="#F1F1F1" fill-opacity="0.14"/>
<rect width="13.8091" height="348.028" rx="6.90455" transform="matrix(-0.644132 -0.764914 0.893472 -0.449118 -264.398 610.344)" fill="#F1F1F1" fill-opacity="0.14"/>
<rect width="13.8091" height="348.028" rx="6.90455" transform="matrix(-0.644132 -0.764914 0.893472 -0.449118 1382.64 168.918)" fill="#F1F1F1" fill-opacity="0.14"/>
<rect width="15.0916" height="319.296" rx="7.54578" transform="matrix(-0.866671 0.49888 -0.694151 -0.71983 888.412 91.1877)" fill="#F1F1F1" fill-opacity="0.14"/>
<rect width="13.8091" height="348.028" rx="6.90455" transform="matrix(-0.644132 -0.764914 0.893472 -0.449118 366.658 28.2183)" fill="#F1F1F1" fill-opacity="0.14"/>
<rect width="15.0916" height="319.296" rx="7.54578" transform="matrix(-0.866671 0.49888 -0.694151 -0.71983 379.223 20.8386)" fill="#F1F1F1" fill-opacity="0.14"/>
<rect width="15.0916" height="319.296" rx="7.54578" transform="matrix(-0.866671 0.49888 -0.694151 -0.71983 1396.41 161.539)" fill="#F1F1F1" fill-opacity="0.14"/>
<rect width="13.8091" height="348.028" rx="6.90455" transform="matrix(-0.644132 -0.764914 0.893472 -0.449118 874.652 98.5691)" fill="#F1F1F1" fill-opacity="0.14"/>
<rect width="15.0916" height="319.296" rx="7.54578" transform="matrix(-0.866671 0.49888 -0.694151 -0.71983 1845.69 398.508)" fill="#F1F1F1" fill-opacity="0.14"/>
<rect width="13.8091" height="348.028" rx="6.90455" transform="matrix(-0.644132 -0.764914 0.893472 -0.449118 1323.94 335.538)" fill="#F1F1F1" fill-opacity="0.14"/>
<rect width="15.0916" height="319.296" rx="7.54578" transform="matrix(-0.866671 0.49888 -0.694151 -0.71983 829.707 257.807)" fill="#F1F1F1" fill-opacity="0.14"/>
<rect width="13.8091" height="348.028" rx="6.90455" transform="matrix(-0.644132 -0.764914 0.893472 -0.449118 307.953 194.838)" fill="#F1F1F1" fill-opacity="0.14"/>
<rect width="15.0916" height="319.296" rx="7.54578" transform="matrix(-0.866671 0.49888 -0.694151 -0.71983 320.518 187.457)" fill="#F1F1F1" fill-opacity="0.14"/>
<rect width="13.8091" height="348.028" rx="6.90455" transform="matrix(-0.644132 -0.764914 0.893472 -0.449118 -201.236 124.488)" fill="#F1F1F1" fill-opacity="0.14"/>
<rect width="15.0916" height="319.296" rx="7.54578" transform="matrix(-0.866671 0.49888 -0.694151 -0.71983 1337.7 328.157)" fill="#F1F1F1" fill-opacity="0.14"/>
<rect width="13.8091" height="348.028" rx="6.90455" transform="matrix(-0.644132 -0.764914 0.893472 -0.449118 815.947 265.188)" fill="#F1F1F1" fill-opacity="0.14"/>
</g>
<defs>
<clipPath id="clip0_1171_16315">
<rect width="1612" height="575" rx="15" fill="white"/>
</clipPath>
</defs>
</svg>
