<svg width="428" height="751" viewBox="0 0 428 751" fill="none" xmlns="http://www.w3.org/2000/svg">
<circle cx="34" cy="5.85059" r="5" fill="#004AAD" fill-opacity="0.09"/>
<circle cx="74" cy="5.85059" r="5" fill="#004AAD" fill-opacity="0.09"/>
<circle cx="114" cy="5.85059" r="5" fill="#004AAD" fill-opacity="0.09"/>
<circle cx="154" cy="5.85059" r="5" fill="#004AAD" fill-opacity="0.09"/>
<circle cx="194" cy="5.85059" r="5" fill="#004AAD" fill-opacity="0.09"/>
<circle cx="234" cy="5.85059" r="5" fill="#004AAD" fill-opacity="0.09"/>
<circle cx="274" cy="5.85059" r="5" fill="#004AAD" fill-opacity="0.09"/>
<circle cx="314" cy="5.85059" r="5" fill="#004AAD" fill-opacity="0.09"/>
<circle cx="354" cy="5.85059" r="5" fill="#004AAD" fill-opacity="0.09"/>
<circle cx="394" cy="5.85059" r="5" fill="#004AAD" fill-opacity="0.09"/>
<circle cx="34" cy="79.8506" r="5" fill="#004AAD" fill-opacity="0.09"/>
<circle cx="74" cy="79.8506" r="5" fill="#004AAD" fill-opacity="0.09"/>
<circle cx="114" cy="79.8506" r="5" fill="#004AAD" fill-opacity="0.09"/>
<circle cx="154" cy="79.8506" r="5" fill="#004AAD" fill-opacity="0.09"/>
<circle cx="194" cy="79.8506" r="5" fill="#004AAD" fill-opacity="0.09"/>
<circle cx="234" cy="79.8506" r="5" fill="#004AAD" fill-opacity="0.09"/>
<circle cx="274" cy="79.8506" r="5" fill="#004AAD" fill-opacity="0.09"/>
<circle cx="314" cy="79.8506" r="5" fill="#004AAD" fill-opacity="0.09"/>
<circle cx="354" cy="79.8506" r="5" fill="#004AAD" fill-opacity="0.09"/>
<circle cx="394" cy="79.8506" r="5" fill="#004AAD" fill-opacity="0.09"/>
<circle cx="34" cy="153.851" r="5" fill="#004AAD" fill-opacity="0.09"/>
<circle cx="74" cy="153.851" r="5" fill="#004AAD" fill-opacity="0.09"/>
<circle cx="114" cy="153.851" r="5" fill="#004AAD" fill-opacity="0.09"/>
<circle cx="154" cy="153.851" r="5" fill="#004AAD" fill-opacity="0.09"/>
<circle cx="194" cy="153.851" r="5" fill="#004AAD" fill-opacity="0.09"/>
<circle cx="234" cy="153.851" r="5" fill="#004AAD" fill-opacity="0.09"/>
<circle cx="274" cy="153.851" r="5" fill="#004AAD" fill-opacity="0.09"/>
<circle cx="314" cy="153.851" r="5" fill="#004AAD" fill-opacity="0.09"/>
<circle cx="354" cy="153.851" r="5" fill="#004AAD" fill-opacity="0.09"/>
<circle cx="394" cy="153.851" r="5" fill="#004AAD" fill-opacity="0.09"/>
<circle cx="34" cy="227.851" r="5" fill="#004AAD" fill-opacity="0.09"/>
<circle cx="74" cy="227.851" r="5" fill="#004AAD" fill-opacity="0.09"/>
<circle cx="114" cy="227.851" r="5" fill="#004AAD" fill-opacity="0.09"/>
<circle cx="154" cy="227.851" r="5" fill="#004AAD" fill-opacity="0.09"/>
<circle cx="194" cy="227.851" r="5" fill="#004AAD" fill-opacity="0.09"/>
<circle cx="234" cy="227.851" r="5" fill="#004AAD" fill-opacity="0.09"/>
<circle cx="274" cy="227.851" r="5" fill="#004AAD" fill-opacity="0.09"/>
<circle cx="314" cy="227.851" r="5" fill="#004AAD" fill-opacity="0.09"/>
<circle cx="354" cy="227.851" r="5" fill="#004AAD" fill-opacity="0.09"/>
<circle cx="394" cy="227.851" r="5" fill="#004AAD" fill-opacity="0.09"/>
<circle cx="34" cy="301.851" r="5" fill="#004AAD" fill-opacity="0.09"/>
<circle cx="74" cy="301.851" r="5" fill="#004AAD" fill-opacity="0.09"/>
<circle cx="114" cy="301.851" r="5" fill="#004AAD" fill-opacity="0.09"/>
<circle cx="154" cy="301.851" r="5" fill="#004AAD" fill-opacity="0.09"/>
<circle cx="194" cy="301.851" r="5" fill="#004AAD" fill-opacity="0.09"/>
<circle cx="234" cy="301.851" r="5" fill="#004AAD" fill-opacity="0.09"/>
<circle cx="274" cy="301.851" r="5" fill="#004AAD" fill-opacity="0.09"/>
<circle cx="314" cy="301.851" r="5" fill="#004AAD" fill-opacity="0.09"/>
<circle cx="354" cy="301.851" r="5" fill="#004AAD" fill-opacity="0.09"/>
<circle cx="394" cy="301.851" r="5" fill="#004AAD" fill-opacity="0.09"/>
<circle cx="34" cy="375.851" r="5" fill="#004AAD" fill-opacity="0.09"/>
<circle cx="74" cy="375.851" r="5" fill="#004AAD" fill-opacity="0.09"/>
<circle cx="114" cy="375.851" r="5" fill="#004AAD" fill-opacity="0.09"/>
<circle cx="154" cy="375.851" r="5" fill="#004AAD" fill-opacity="0.09"/>
<circle cx="194" cy="375.851" r="5" fill="#004AAD" fill-opacity="0.09"/>
<circle cx="234" cy="375.851" r="5" fill="#004AAD" fill-opacity="0.09"/>
<circle cx="274" cy="375.851" r="5" fill="#004AAD" fill-opacity="0.09"/>
<circle cx="314" cy="375.851" r="5" fill="#004AAD" fill-opacity="0.09"/>
<circle cx="354" cy="375.851" r="5" fill="#004AAD" fill-opacity="0.09"/>
<circle cx="394" cy="375.851" r="5" fill="#004AAD" fill-opacity="0.09"/>
<circle cx="34" cy="449.851" r="5" fill="#004AAD" fill-opacity="0.09"/>
<circle cx="74" cy="449.851" r="5" fill="#004AAD" fill-opacity="0.09"/>
<circle cx="114" cy="449.851" r="5" fill="#004AAD" fill-opacity="0.09"/>
<circle cx="154" cy="449.851" r="5" fill="#004AAD" fill-opacity="0.09"/>
<circle cx="194" cy="449.851" r="5" fill="#004AAD" fill-opacity="0.09"/>
<circle cx="234" cy="449.851" r="5" fill="#004AAD" fill-opacity="0.09"/>
<circle cx="274" cy="449.851" r="5" fill="#004AAD" fill-opacity="0.09"/>
<circle cx="314" cy="449.851" r="5" fill="#004AAD" fill-opacity="0.09"/>
<circle cx="354" cy="449.851" r="5" fill="#004AAD" fill-opacity="0.09"/>
<circle cx="394" cy="449.851" r="5" fill="#004AAD" fill-opacity="0.09"/>
<circle cx="34" cy="523.851" r="5" fill="#004AAD" fill-opacity="0.09"/>
<circle cx="74" cy="523.851" r="5" fill="#004AAD" fill-opacity="0.09"/>
<circle cx="114" cy="523.851" r="5" fill="#004AAD" fill-opacity="0.09"/>
<circle cx="154" cy="523.851" r="5" fill="#004AAD" fill-opacity="0.09"/>
<circle cx="194" cy="523.851" r="5" fill="#004AAD" fill-opacity="0.09"/>
<circle cx="234" cy="523.851" r="5" fill="#004AAD" fill-opacity="0.09"/>
<circle cx="274" cy="523.851" r="5" fill="#004AAD" fill-opacity="0.09"/>
<circle cx="314" cy="523.851" r="5" fill="#004AAD" fill-opacity="0.09"/>
<circle cx="354" cy="523.851" r="5" fill="#004AAD" fill-opacity="0.09"/>
<circle cx="394" cy="523.851" r="5" fill="#004AAD" fill-opacity="0.09"/>
<circle cx="34" cy="597.851" r="5" fill="#004AAD" fill-opacity="0.09"/>
<circle cx="74" cy="597.851" r="5" fill="#004AAD" fill-opacity="0.09"/>
<circle cx="114" cy="597.851" r="5" fill="#004AAD" fill-opacity="0.09"/>
<circle cx="154" cy="597.851" r="5" fill="#004AAD" fill-opacity="0.09"/>
<circle cx="194" cy="597.851" r="5" fill="#004AAD" fill-opacity="0.09"/>
<circle cx="234" cy="597.851" r="5" fill="#004AAD" fill-opacity="0.09"/>
<circle cx="274" cy="597.851" r="5" fill="#004AAD" fill-opacity="0.09"/>
<circle cx="314" cy="597.851" r="5" fill="#004AAD" fill-opacity="0.09"/>
<circle cx="354" cy="597.851" r="5" fill="#004AAD" fill-opacity="0.09"/>
<circle cx="394" cy="597.851" r="5" fill="#004AAD" fill-opacity="0.09"/>
<circle cx="34" cy="671.851" r="5" fill="#004AAD" fill-opacity="0.09"/>
<circle cx="74" cy="671.851" r="5" fill="#004AAD" fill-opacity="0.09"/>
<circle cx="114" cy="671.851" r="5" fill="#004AAD" fill-opacity="0.09"/>
<circle cx="154" cy="671.851" r="5" fill="#004AAD" fill-opacity="0.09"/>
<circle cx="194" cy="671.851" r="5" fill="#004AAD" fill-opacity="0.09"/>
<circle cx="234" cy="671.851" r="5" fill="#004AAD" fill-opacity="0.09"/>
<circle cx="274" cy="671.851" r="5" fill="#004AAD" fill-opacity="0.09"/>
<circle cx="314" cy="671.851" r="5" fill="#004AAD" fill-opacity="0.09"/>
<circle cx="354" cy="671.851" r="5" fill="#004AAD" fill-opacity="0.09"/>
<circle cx="394" cy="671.851" r="5" fill="#004AAD" fill-opacity="0.09"/>
<circle cx="34" cy="745.851" r="5" fill="#004AAD" fill-opacity="0.09"/>
<circle cx="74" cy="745.851" r="5" fill="#004AAD" fill-opacity="0.09"/>
<circle cx="114" cy="745.851" r="5" fill="#004AAD" fill-opacity="0.09"/>
<circle cx="154" cy="745.851" r="5" fill="#004AAD" fill-opacity="0.09"/>
<circle cx="194" cy="745.851" r="5" fill="#004AAD" fill-opacity="0.09"/>
<circle cx="234" cy="745.851" r="5" fill="#004AAD" fill-opacity="0.09"/>
<circle cx="274" cy="745.851" r="5" fill="#004AAD" fill-opacity="0.09"/>
<circle cx="314" cy="745.851" r="5" fill="#004AAD" fill-opacity="0.09"/>
<circle cx="354" cy="745.851" r="5" fill="#004AAD" fill-opacity="0.09"/>
<circle cx="394" cy="745.851" r="5" fill="#004AAD" fill-opacity="0.09"/>
</svg>
