<svg width="76" height="75" viewBox="0 0 76 75" fill="none" xmlns="http://www.w3.org/2000/svg">
<path d="M48.3036 37.7007C47.8765 36.8597 47.8765 35.3281 48.3036 34.4871C49.0832 32.9544 48.9725 30.5 48.0497 28.9022C47.1173 27.2828 45.1032 25.969 43.3647 25.8451C42.4131 25.7741 41.0704 25.0005 40.5494 24.2233C39.6134 22.8144 37.4357 21.71 35.5938 21.71C33.7554 21.71 31.5789 22.8132 30.6381 24.2233C30.1183 25.0017 28.7768 25.7741 27.8192 25.8427C26.083 25.9714 24.0702 27.2864 23.1354 28.9034C22.1994 30.5277 22.0899 32.9291 22.8815 34.4884C23.3086 35.3293 23.3086 36.8609 22.8815 37.7031C22.0911 39.2636 22.2006 41.6638 23.1366 43.2892C24.0714 44.905 26.0842 46.2212 27.824 46.3476C27.9972 46.3596 28.1837 46.4017 28.375 46.457V63.8193C28.3752 64.0158 28.4235 64.2093 28.5157 64.3829C28.6078 64.5564 28.7411 64.7048 28.9038 64.815C29.0664 64.9252 29.2536 64.994 29.449 65.0153C29.6443 65.0365 29.8419 65.0097 30.0245 64.937L35.5938 62.7089L41.163 64.937C41.3458 65.0092 41.5433 65.0359 41.7387 65.0147C41.934 64.9936 42.1213 64.9252 42.2843 64.8155C42.614 64.5917 42.8125 64.2188 42.8125 63.8193V46.4546C43.0038 46.4005 43.1915 46.3584 43.3659 46.3451C45.1045 46.2188 47.1185 44.9026 48.0509 43.2868C48.9725 41.6891 49.0844 39.2359 48.3036 37.7007ZM36.0413 60.2954C35.7545 60.1798 35.4342 60.1798 35.1474 60.2954L30.7812 62.0423V48.1462C31.7907 49.4865 33.8059 50.4779 35.5938 50.4779C37.3539 50.4779 39.4089 49.4649 40.4062 48.1462V62.0423L36.0413 60.2954ZM46.1584 38.7907C46.5783 39.6149 46.4856 41.1837 45.9659 42.0837C45.4425 42.9896 44.1203 43.8775 43.1915 43.9461C41.4867 44.0676 39.4907 45.2202 38.5474 46.6303C38.0457 47.3847 36.6381 48.0704 35.5938 48.0704C34.5506 48.0704 33.143 47.3834 32.6401 46.6291C31.6992 45.2202 29.702 44.0664 27.9972 43.9461C27.0684 43.8775 25.745 42.9896 25.2204 42.0825C24.7019 41.1837 24.6092 39.6137 25.0267 38.7907C25.8075 37.2531 25.8075 34.9347 25.0267 33.3983C24.6092 32.5742 24.7007 31.0053 25.2192 30.1066C25.7438 29.1994 27.0672 28.3115 27.9936 28.2417C29.702 28.1202 31.6992 26.9664 32.6389 25.56C33.1442 24.8032 34.5518 24.1162 35.5938 24.1162C36.6381 24.1162 38.0457 24.8032 38.5498 25.5588C39.4895 26.9652 41.4842 28.119 43.1915 28.2441C44.1203 28.3115 45.4425 29.197 45.9659 30.1042C46.4868 31.0041 46.5783 32.573 46.1584 33.3959C45.3776 34.9347 45.3776 37.2531 46.1584 38.7907ZM35.595 31.2808C32.9409 31.2808 30.7812 33.4404 30.7812 36.0945C30.7812 38.7486 32.9409 40.907 35.595 40.907C38.2478 40.907 40.4062 38.7486 40.4062 36.0945C40.4062 33.4404 38.2478 31.2808 35.595 31.2808ZM35.595 38.5008C34.9568 38.5005 34.3448 38.2469 33.8934 37.7957C33.442 37.3446 33.1881 36.7327 33.1875 36.0945C33.1875 34.7663 34.2667 33.6871 35.595 33.6871C36.9208 33.6871 38 34.7663 38 36.0945C38 37.4216 36.9208 38.5008 35.595 38.5008ZM65.6719 13.2881C65.6719 13.6072 65.5451 13.9132 65.3195 14.1388C65.0939 14.3645 64.7878 14.4912 64.4688 14.4912H40.4062C40.0872 14.4912 39.7811 14.3645 39.5555 14.1388C39.3299 13.9132 39.2031 13.6072 39.2031 13.2881C39.2031 12.969 39.3299 12.663 39.5555 12.4373C39.7811 12.2117 40.0872 12.085 40.4062 12.085H64.4688C64.7878 12.085 65.0939 12.2117 65.3195 12.4373C65.5451 12.663 65.6719 12.969 65.6719 13.2881ZM65.6719 25.3193C65.6719 25.6384 65.5451 25.9444 65.3195 26.1701C65.0939 26.3957 64.7878 26.5225 64.4688 26.5225H52.4375C52.1184 26.5225 51.8124 26.3957 51.5868 26.1701C51.3611 25.9444 51.2344 25.6384 51.2344 25.3193C51.2344 25.0002 51.3611 24.6942 51.5868 24.4686C51.8124 24.243 52.1184 24.1162 52.4375 24.1162H64.4688C64.7878 24.1162 65.0939 24.243 65.3195 24.4686C65.5451 24.6942 65.6719 25.0002 65.6719 25.3193ZM65.6719 37.3506C65.6719 37.6697 65.5451 37.9757 65.3195 38.2013C65.0939 38.427 64.7878 38.5537 64.4688 38.5537H53.6406C53.3215 38.5537 53.0155 38.427 52.7899 38.2013C52.5643 37.9757 52.4375 37.6697 52.4375 37.3506C52.4375 37.0315 52.5643 36.7255 52.7899 36.4998C53.0155 36.2742 53.3215 36.1475 53.6406 36.1475H64.4688C64.7878 36.1475 65.0939 36.2742 65.3195 36.4998C65.5451 36.7255 65.6719 37.0315 65.6719 37.3506ZM65.6719 49.3818C65.6719 49.7009 65.5451 50.0069 65.3195 50.2326C65.0939 50.4582 64.7878 50.585 64.4688 50.585H48.8281C48.509 50.585 48.203 50.4582 47.9774 50.2326C47.7518 50.0069 47.625 49.7009 47.625 49.3818C47.625 49.0627 47.7518 48.7567 47.9774 48.5311C48.203 48.3055 48.509 48.1787 48.8281 48.1787H64.4688C64.7878 48.1787 65.0939 48.3055 65.3195 48.5311C65.5451 48.7567 65.6719 49.0627 65.6719 49.3818ZM65.6719 61.4131C65.6719 61.7322 65.5451 62.0382 65.3195 62.2638C65.0939 62.4895 64.7878 62.6162 64.4688 62.6162H48.8281C48.509 62.6162 48.203 62.4895 47.9774 62.2638C47.7518 62.0382 47.625 61.7322 47.625 61.4131C47.625 61.094 47.7518 60.788 47.9774 60.5623C48.203 60.3367 48.509 60.21 48.8281 60.21H64.4688C64.7878 60.21 65.0939 60.3367 65.3195 60.5623C65.5451 60.788 65.6719 61.094 65.6719 61.4131ZM22.3594 13.2881C22.3594 12.969 22.4861 12.663 22.7118 12.4373C22.9374 12.2117 23.2434 12.085 23.5625 12.085H32.8434C33.1625 12.085 33.4685 12.2117 33.6941 12.4373C33.9198 12.663 34.0465 12.969 34.0465 13.2881C34.0465 13.6072 33.9198 13.9132 33.6941 14.1388C33.4685 14.3645 33.1625 14.4912 32.8434 14.4912H23.5625C23.2434 14.4912 22.9374 14.3645 22.7118 14.1388C22.4861 13.9132 22.3594 13.6072 22.3594 13.2881ZM68.0781 0.0537109H7.92188C3.94073 0.0537109 0.703125 3.29132 0.703125 7.27246V37.3506C0.703125 37.6697 0.829882 37.9757 1.05551 38.2013C1.28114 38.427 1.58716 38.5537 1.90625 38.5537H12.7344V73.4443C12.7344 73.7634 12.8611 74.0694 13.0868 74.2951C13.3124 74.5207 13.6184 74.6475 13.9375 74.6475H74.0938C74.4128 74.6475 74.7189 74.5207 74.9445 74.2951C75.1701 74.0694 75.2969 73.7634 75.2969 73.4443V7.27246C75.2969 3.29132 72.0593 0.0537109 68.0781 0.0537109ZM3.10938 36.1475V7.27246C3.10938 4.61837 5.26778 2.45996 7.92188 2.45996C10.576 2.45996 12.7344 4.61837 12.7344 7.27246V36.1475H3.10938ZM72.8906 72.2412H15.1406V7.27246C15.1403 5.49398 14.4796 3.77899 13.2866 2.45996H68.0781C70.7322 2.45996 72.8906 4.61837 72.8906 7.27246V72.2412Z" fill="#004AAD"/>
</svg>
