<svg width="39" height="22" viewBox="0 0 39 22" fill="none" xmlns="http://www.w3.org/2000/svg">
<path d="M28.8392 0.693631C28.4487 0.303112 27.8156 0.303114 27.425 0.693636L26.9881 1.13053C26.5976 1.52106 26.5976 2.15422 26.9881 2.54475L32.4274 7.98402C33.0574 8.61399 32.6112 9.69113 31.7203 9.69113H7.93484e-05C3.45357e-05 9.69113 0 9.69116 0 9.69121V12.309C0 12.3091 3.68868e-05 12.3091 8.23889e-05 12.3091H31.7201C32.611 12.3091 33.0571 13.3863 32.4272 14.0162L26.9881 19.4552C26.5976 19.8458 26.5976 20.4789 26.9881 20.8695L27.425 21.3064C27.8156 21.6969 28.4487 21.6969 28.8392 21.3064L38.4386 11.7071C38.8292 11.3166 38.8292 10.6834 38.4386 10.2929L28.8392 0.693631Z" fill="#004AAD"/>
</svg>
