<svg width="569" height="832" viewBox="0 0 569 832" fill="none" xmlns="http://www.w3.org/2000/svg">
<rect x="284.833" y="279.266" width="142.416" height="136.884" fill="#BF780E"/>
<rect x="1.10986" y="348" width="141" height="69" fill="#BF780E"/>
<rect x="143.306" y="71.3406" width="71.208" height="68.442" fill="#DA063F"/>
<rect x="427.249" y="695.116" width="142.416" height="136.884" fill="#004AAD"/>
<path d="M-1.99951 486.324C-1.99951 448.525 28.643 417.882 66.4425 417.882H69.2085C108.536 417.882 140.417 449.763 140.417 489.09V554.766H66.4425C28.643 554.766 -1.99951 524.124 -1.99951 486.324Z" fill="#004AAD" fill-opacity="0.34"/>
<path d="M142.131 763.025C141.794 800.823 110.879 831.206 73.0808 830.887L70.3151 830.864C30.9895 830.531 -0.605997 798.383 -0.255431 759.057L0.330017 693.383L74.301 694.008C112.099 694.327 142.468 725.227 142.131 763.025Z" fill="#004AAD"/>
<path d="M213.113 417.17C174.836 416.845 143.584 385.548 143.927 347.272C144.27 308.995 175.577 278.229 213.854 278.554L285.178 279.16L284.566 347.456C284.218 386.29 251.947 417.5 213.113 417.17Z" fill="#DA063F"/>
<path d="M284.594 209.621C284.176 171.824 314.477 140.862 352.275 140.465L355.04 140.436C394.365 140.024 426.597 171.568 427.033 210.893L427.76 276.566L353.79 277.342C315.993 277.738 285.013 247.419 284.594 209.621Z" fill="#004AAD" fill-opacity="0.21"/>
<path d="M428.868 485.932C428.449 448.135 458.751 417.172 496.548 416.776L499.314 416.747C538.639 416.334 570.871 447.879 571.306 487.203L572.033 552.876L498.064 553.652C460.266 554.048 429.286 523.729 428.868 485.932Z" fill="#DA063F"/>
<path d="M286.479 68.9318C286.061 31.1345 316.363 0.172344 354.16 -0.224123L356.926 -0.25313C396.25 -0.665617 428.482 30.8788 428.918 70.2034L429.645 135.876L355.676 136.652C317.878 137.048 286.898 106.729 286.479 68.9318Z" fill="#004AAD"/>
<path d="M70.6966 277.254C32.42 276.929 1.16765 245.632 1.51059 207.356C1.85352 169.079 33.1609 138.313 71.4375 138.638L142.762 139.244L142.15 207.54C141.802 246.374 109.531 277.583 70.6966 277.254Z" fill="#DA063F"/>
<path d="M142.416 138.916H144.483C221.995 138.916 284.832 201.753 284.832 279.266H142.416V138.916Z" fill="#004AAD"/>
<path d="M569.799 140.649L567.732 140.651C490.219 140.722 427.322 77.9429 427.247 0.430088L569.663 0.299543L569.799 140.649Z" fill="#DA063F"/>
<path d="M143.44 140.649L128.847 140.662C58.2526 140.727 0.969055 83.5513 0.900748 12.9567C0.894054 6.03844 6.49699 0.424947 13.4152 0.418606L143.305 0.299543L143.44 140.649Z" fill="#004AAD"/>
<path d="M142.416 277.533C142.416 316.529 110.204 348.141 71.208 348.141C32.2123 348.141 -4.57764e-05 316.529 -4.57764e-05 277.533L142.416 277.533Z" fill="#004AAD" fill-opacity="0.21"/>
<path d="M570.109 140.649C570.109 179.645 537.897 211.257 498.901 211.257C459.906 211.257 427.693 179.645 427.693 140.649L570.109 140.649Z" fill="#004AAD"/>
<path d="M285.722 0.299576C285.722 39.2952 253.509 70.9075 214.514 70.9075C175.518 70.9075 143.306 39.2952 143.306 0.299576L285.722 0.299576Z" fill="#004AAD" fill-opacity="0.21"/>
<path d="M8.88965 625.374C9.01613 586.378 41.3308 554.865 80.3263 554.985C119.322 555.105 151.431 586.816 151.305 625.812L8.88965 625.374Z" fill="#DA063F"/>
<path d="M141.08 761.825C141.206 722.829 173.521 691.316 212.516 691.436C251.512 691.556 283.621 723.267 283.495 762.262L141.08 761.825Z" fill="#004AAD" fill-opacity="0.21"/>
<path d="M572.526 626C572.526 664.996 540.314 696.608 501.318 696.608C462.322 696.608 430.11 664.996 430.11 626H572.526Z" fill="#004AAD" fill-opacity="0.21"/>
<path d="M570.526 268C570.526 306.996 538.314 338.608 499.318 338.608C460.322 338.608 428.11 306.996 428.11 268L570.526 268Z" fill="#004AAD" fill-opacity="0.21"/>
<ellipse cx="283.61" cy="560" rx="143.5" ry="144" fill="#004AAD"/>
<ellipse cx="355.594" cy="762.692" rx="71.6531" ry="69.3084" fill="#DA063F"/>
</svg>
