<svg width="1746" height="850" viewBox="0 0 1746 850" fill="none" xmlns="http://www.w3.org/2000/svg">
<g clip-path="url(#clip0_1082_9919)">
<rect width="1746" height="850" fill="#004AAD"/>
<rect width="15.0916" height="319.296" rx="7.54578" transform="matrix(-0.866671 0.49888 -0.694151 -0.71983 1829.25 539.095)" fill="#F1F1F1" fill-opacity="0.14"/>
<rect width="13.8091" height="348.028" rx="6.90455" transform="matrix(-0.644132 -0.764914 0.893472 -0.449118 1307.5 476.125)" fill="#F1F1F1" fill-opacity="0.14"/>
<rect width="15.0916" height="319.296" rx="7.54578" transform="matrix(-0.866671 0.49888 -0.694151 -0.71983 813.273 398.394)" fill="#F1F1F1" fill-opacity="0.14"/>
<rect width="13.8091" height="348.028" rx="6.90455" transform="matrix(-0.644132 -0.764914 0.893472 -0.449118 291.519 335.424)" fill="#F1F1F1" fill-opacity="0.14"/>
<rect width="15.0916" height="319.296" rx="7.54578" transform="matrix(-0.866671 0.49888 -0.694151 -0.71983 304.082 328.044)" fill="#F1F1F1" fill-opacity="0.14"/>
<rect width="13.8091" height="348.028" rx="6.90455" transform="matrix(-0.644132 -0.764914 0.893472 -0.449118 -217.673 265.074)" fill="#F1F1F1" fill-opacity="0.14"/>
<rect width="15.0916" height="319.296" rx="7.54578" transform="matrix(-0.866671 0.49888 -0.694151 -0.71983 1321.27 468.743)" fill="#F1F1F1" fill-opacity="0.14"/>
<rect width="13.8091" height="348.028" rx="6.90455" transform="matrix(-0.644132 -0.764914 0.893472 -0.449118 799.512 405.773)" fill="#F1F1F1" fill-opacity="0.14"/>
<rect width="15.0916" height="319.296" rx="7.54578" transform="matrix(-0.866671 0.49888 -0.694151 -0.71983 1818.47 721.448)" fill="#F1F1F1" fill-opacity="0.14"/>
<rect width="13.8091" height="348.028" rx="6.90455" transform="matrix(-0.644132 -0.764914 0.893472 -0.449118 1296.72 658.478)" fill="#F1F1F1" fill-opacity="0.14"/>
<rect width="15.0916" height="319.296" rx="7.54578" transform="matrix(-0.866671 0.49888 -0.694151 -0.71983 802.49 580.748)" fill="#F1F1F1" fill-opacity="0.14"/>
<rect width="13.8091" height="348.028" rx="6.90455" transform="matrix(-0.644132 -0.764914 0.893472 -0.449118 280.736 517.778)" fill="#F1F1F1" fill-opacity="0.14"/>
<rect width="15.0916" height="319.296" rx="7.54578" transform="matrix(-0.866671 0.49888 -0.694151 -0.71983 293.297 510.4)" fill="#F1F1F1" fill-opacity="0.14"/>
<rect width="13.8091" height="348.028" rx="6.90455" transform="matrix(-0.644132 -0.764914 0.893472 -0.449118 -228.456 447.43)" fill="#F1F1F1" fill-opacity="0.14"/>
<rect width="15.0916" height="319.296" rx="7.54578" transform="matrix(-0.866671 0.49888 -0.694151 -0.71983 1310.48 651.098)" fill="#F1F1F1" fill-opacity="0.14"/>
<rect width="13.8091" height="348.028" rx="6.90455" transform="matrix(-0.644132 -0.764914 0.893472 -0.449118 788.727 588.128)" fill="#F1F1F1" fill-opacity="0.14"/>
<rect width="15.0916" height="319.296" rx="7.54578" transform="matrix(-0.866671 0.49888 -0.694151 -0.71983 1782.53 884.362)" fill="#F1F1F1" fill-opacity="0.14"/>
<rect width="13.8091" height="348.028" rx="6.90455" transform="matrix(-0.644132 -0.764914 0.893472 -0.449118 1260.78 821.393)" fill="#F1F1F1" fill-opacity="0.14"/>
<rect width="15.0916" height="319.296" rx="7.54578" transform="matrix(-0.866671 0.49888 -0.694151 -0.71983 766.545 743.663)" fill="#F1F1F1" fill-opacity="0.14"/>
<rect width="13.8091" height="348.028" rx="6.90455" transform="matrix(-0.644132 -0.764914 0.893472 -0.449118 244.792 680.693)" fill="#F1F1F1" fill-opacity="0.14"/>
<rect width="15.0916" height="319.296" rx="7.54578" transform="matrix(-0.866671 0.49888 -0.694151 -0.71983 257.355 673.314)" fill="#F1F1F1" fill-opacity="0.14"/>
<rect width="13.8091" height="348.028" rx="6.90455" transform="matrix(-0.644132 -0.764914 0.893472 -0.449118 -264.399 610.344)" fill="#F1F1F1" fill-opacity="0.14"/>
<rect width="15.0916" height="319.296" rx="7.54578" transform="matrix(-0.866671 0.49888 -0.694151 -0.71983 1274.54 814.013)" fill="#F1F1F1" fill-opacity="0.14"/>
<rect width="13.8091" height="348.028" rx="6.90455" transform="matrix(-0.644132 -0.764914 0.893472 -0.449118 752.783 751.044)" fill="#F1F1F1" fill-opacity="0.14"/>
<rect width="15.0916" height="319.296" rx="7.54578" transform="matrix(-0.866671 0.49888 -0.694151 -0.71983 1723.82 1050.98)" fill="#F1F1F1" fill-opacity="0.14"/>
<rect width="13.8091" height="348.028" rx="6.90455" transform="matrix(-0.644132 -0.764914 0.893472 -0.449118 1202.07 988.014)" fill="#F1F1F1" fill-opacity="0.14"/>
<rect width="15.0916" height="319.296" rx="7.54578" transform="matrix(-0.866671 0.49888 -0.694151 -0.71983 707.839 910.282)" fill="#F1F1F1" fill-opacity="0.14"/>
<rect width="13.8091" height="348.028" rx="6.90455" transform="matrix(-0.644132 -0.764914 0.893472 -0.449118 186.086 847.314)" fill="#F1F1F1" fill-opacity="0.14"/>
<rect width="15.0916" height="319.296" rx="7.54578" transform="matrix(-0.866671 0.49888 -0.694151 -0.71983 198.649 839.933)" fill="#F1F1F1" fill-opacity="0.14"/>
<rect width="15.0916" height="319.296" rx="7.54578" transform="matrix(-0.866671 0.49888 -0.694151 -0.71983 1215.83 980.634)" fill="#F1F1F1" fill-opacity="0.14"/>
<rect width="13.8091" height="348.028" rx="6.90455" transform="matrix(-0.644132 -0.764914 0.893472 -0.449118 694.078 917.664)" fill="#F1F1F1" fill-opacity="0.14"/>
<rect width="15.0916" height="319.296" rx="7.54578" transform="matrix(-0.866671 0.49888 -0.694151 -0.71983 1904.4 231.887)" fill="#F1F1F1" fill-opacity="0.14"/>
<rect width="13.8091" height="348.028" rx="6.90455" transform="matrix(-0.644132 -0.764914 0.893472 -0.449118 1382.64 168.917)" fill="#F1F1F1" fill-opacity="0.14"/>
<rect width="15.0916" height="319.296" rx="7.54578" transform="matrix(-0.866671 0.49888 -0.694151 -0.71983 888.413 91.1877)" fill="#F1F1F1" fill-opacity="0.14"/>
<rect width="13.8091" height="348.028" rx="6.90455" transform="matrix(-0.644132 -0.764914 0.893472 -0.449118 366.658 28.2183)" fill="#F1F1F1" fill-opacity="0.14"/>
<rect width="15.0916" height="319.296" rx="7.54578" transform="matrix(-0.866671 0.49888 -0.694151 -0.71983 379.221 20.8386)" fill="#F1F1F1" fill-opacity="0.14"/>
<rect width="15.0916" height="319.296" rx="7.54578" transform="matrix(-0.866671 0.49888 -0.694151 -0.71983 1396.41 161.538)" fill="#F1F1F1" fill-opacity="0.14"/>
<rect width="13.8091" height="348.028" rx="6.90455" transform="matrix(-0.644132 -0.764914 0.893472 -0.449118 874.653 98.5688)" fill="#F1F1F1" fill-opacity="0.14"/>
<rect width="15.0916" height="319.296" rx="7.54578" transform="matrix(-0.866671 0.49888 -0.694151 -0.71983 1845.69 398.508)" fill="#F1F1F1" fill-opacity="0.14"/>
<rect width="13.8091" height="348.028" rx="6.90455" transform="matrix(-0.644132 -0.764914 0.893472 -0.449118 1323.94 335.538)" fill="#F1F1F1" fill-opacity="0.14"/>
<rect width="15.0916" height="319.296" rx="7.54578" transform="matrix(-0.866671 0.49888 -0.694151 -0.71983 829.707 257.807)" fill="#F1F1F1" fill-opacity="0.14"/>
<rect width="13.8091" height="348.028" rx="6.90455" transform="matrix(-0.644132 -0.764914 0.893472 -0.449118 307.953 194.838)" fill="#F1F1F1" fill-opacity="0.14"/>
<rect width="15.0916" height="319.296" rx="7.54578" transform="matrix(-0.866671 0.49888 -0.694151 -0.71983 320.518 187.457)" fill="#F1F1F1" fill-opacity="0.14"/>
<rect width="13.8091" height="348.028" rx="6.90455" transform="matrix(-0.644132 -0.764914 0.893472 -0.449118 -201.237 124.489)" fill="#F1F1F1" fill-opacity="0.14"/>
<rect width="15.0916" height="319.296" rx="7.54578" transform="matrix(-0.866671 0.49888 -0.694151 -0.71983 1337.7 328.157)" fill="#F1F1F1" fill-opacity="0.14"/>
<rect width="13.8091" height="348.028" rx="6.90455" transform="matrix(-0.644132 -0.764914 0.893472 -0.449118 815.947 265.188)" fill="#F1F1F1" fill-opacity="0.14"/>
</g>
<defs>
<clipPath id="clip0_1082_9919">
<rect width="1746" height="850" fill="white"/>
</clipPath>
</defs>
</svg>
