<svg width="75" height="76" viewBox="0 0 75 76" fill="none" xmlns="http://www.w3.org/2000/svg">
<g clip-path="url(#clip0_1133_36551)">
<path d="M6.7959 61.2534C7.08727 61.2534 7.36672 61.1377 7.57275 60.9316C7.77878 60.7256 7.89453 60.4462 7.89453 60.1548V4.31641C7.89453 3.61694 8.46362 3.04785 9.16309 3.04785H58.8828C59.5823 3.04785 60.1514 3.61694 60.1514 4.31641V15.9588C60.1514 16.5657 60.6433 17.0575 61.25 17.0575C61.8567 17.0575 62.3486 16.5657 62.3486 15.9588V4.31641C62.3486 2.40537 60.7938 0.850586 58.8828 0.850586H9.16309C7.25205 0.850586 5.69727 2.40537 5.69727 4.31641V60.1548C5.69727 60.4462 5.81301 60.7256 6.01905 60.9316C6.22508 61.1377 6.50452 61.2534 6.7959 61.2534Z" fill="#004AAD"/>
<path d="M28.4634 13.5333C28.4634 11.7619 27.0223 10.3208 25.2509 10.3208H14.6813C12.9099 10.3208 11.4688 11.7619 11.4688 13.5333V24.1028C11.4688 25.8742 12.9099 27.3155 14.6813 27.3155H25.2509C27.0223 27.3155 28.4634 25.8742 28.4634 24.1028V13.5333ZM26.2662 24.1028C26.2662 24.6626 25.8107 25.1182 25.2509 25.1182H14.6813C14.4121 25.1179 14.154 25.0108 13.9637 24.8204C13.7733 24.6301 13.6663 24.372 13.666 24.1028V13.5333C13.6664 13.2642 13.7734 13.0061 13.9638 12.8158C14.1541 12.6255 14.4121 12.5184 14.6813 12.5181H25.2509C25.5201 12.5184 25.7781 12.6254 25.9685 12.8158C26.1588 13.0061 26.2659 13.2642 26.2662 13.5333V24.1028Z" fill="#004AAD"/>
<path d="M22.1488 16.167L19.1769 19.1389L18.0794 18.0415C17.978 17.937 17.8568 17.8538 17.7229 17.7966C17.589 17.7394 17.445 17.7094 17.2994 17.7084C17.1538 17.7073 17.0094 17.7352 16.8747 17.7905C16.74 17.8457 16.6176 17.9271 16.5146 18.0301C16.4117 18.1331 16.3302 18.2555 16.2749 18.3902C16.2197 18.5249 16.1918 18.6693 16.1928 18.8149C16.1939 18.9605 16.2239 19.1044 16.281 19.2383C16.3382 19.3722 16.4214 19.4935 16.5258 19.5949L18.4001 21.4693C18.5021 21.5714 18.6232 21.6524 18.7564 21.7076C18.8897 21.7629 19.0326 21.7913 19.1769 21.7913C19.3212 21.7913 19.464 21.7629 19.5973 21.7077C19.7306 21.6525 19.8517 21.5715 19.9537 21.4695L23.7024 17.7208C23.9069 17.5145 24.0214 17.2355 24.0208 16.945C24.0202 16.6544 23.9045 16.376 23.6991 16.1705C23.4936 15.9651 23.2152 15.8493 22.9246 15.8487C22.6341 15.848 22.3551 15.9625 22.1488 16.167ZM34.1715 19.621H51.4843C52.0911 19.621 52.583 19.1292 52.583 18.5224C52.583 17.9155 52.0911 17.4237 51.4843 17.4237H34.1715C33.5647 17.4237 33.0728 17.9155 33.0728 18.5224C33.0728 19.1292 33.5647 19.621 34.1715 19.621ZM55.4797 12.6885H44.9735C44.3668 12.6885 43.8749 13.1802 43.8749 13.7871C43.8749 14.394 44.3668 14.8857 44.9735 14.8857H55.4797C56.0864 14.8857 56.5783 14.394 56.5783 13.7871C56.5783 13.1802 56.0864 12.6885 55.4797 12.6885ZM34.1715 14.8857H39.7944C40.4012 14.8857 40.8931 14.394 40.8931 13.7871C40.8931 13.1802 40.4012 12.6885 39.7944 12.6885H34.1715C33.5647 12.6885 33.0728 13.1802 33.0728 13.7871C33.0728 14.394 33.5647 14.8857 34.1715 14.8857ZM40.8302 22.1588C40.2235 22.1588 39.7316 22.6506 39.7316 23.2575C39.7316 23.8644 40.2235 24.3561 40.8302 24.3561H46.6011C47.2079 24.3561 47.6997 23.8644 47.6997 23.2575C47.6997 22.6506 47.2079 22.1588 46.6011 22.1588H40.8302ZM34.1715 24.3561H35.6513C36.258 24.3561 36.7499 23.8644 36.7499 23.2575C36.7499 22.6506 36.258 22.1588 35.6513 22.1588H34.1715C33.5647 22.1588 33.0728 22.6506 33.0728 23.2575C33.0728 23.8644 33.5647 24.3561 34.1715 24.3561ZM28.4634 33.0659C28.4634 31.2945 27.0223 29.8534 25.2509 29.8534H14.6813C12.9099 29.8534 11.4688 31.2945 11.4688 33.0659V43.6354C11.4688 45.4068 12.9099 46.8479 14.6813 46.8479H25.2509C27.0223 46.8479 28.4634 45.4068 28.4634 43.6354V33.0659ZM26.2662 43.6354C26.2658 43.9045 26.1587 44.1626 25.9684 44.3529C25.7781 44.5432 25.52 44.6503 25.2509 44.6506H14.6813C14.4121 44.6503 14.1541 44.5433 13.9637 44.3529C13.7734 44.1626 13.6663 43.9045 13.666 43.6354V33.0659C13.6664 32.7968 13.7734 32.5387 13.9638 32.3484C14.1541 32.1581 14.4121 32.051 14.6813 32.0506H25.2509C25.5201 32.0509 25.7781 32.158 25.9684 32.3483C26.1588 32.5387 26.2659 32.7967 26.2662 33.0659V43.6354Z" fill="#004AAD"/>
<path d="M22.1488 35.6993L19.1769 38.671L18.0794 37.5735C17.8734 37.3675 17.594 37.2518 17.3026 37.2519C17.0113 37.2519 16.7318 37.3677 16.5258 37.5737C16.3198 37.7797 16.2041 38.0591 16.2041 38.3505C16.2041 38.6418 16.3198 38.9213 16.5258 39.1273L18.4001 41.0016C18.6146 41.216 18.8958 41.3232 19.1769 41.3232C19.458 41.3232 19.7393 41.216 19.9537 41.0016L23.7024 37.253C23.9027 37.0458 24.0136 36.7682 24.0112 36.48C24.0088 36.1919 23.8932 35.9162 23.6894 35.7124C23.4857 35.5086 23.21 35.393 22.9218 35.3905C22.6336 35.3881 22.356 35.499 22.1488 35.6993ZM52.583 38.0544C52.583 37.7631 52.4672 37.4836 52.2612 37.2776C52.0551 37.0716 51.7757 36.9558 51.4843 36.9558H34.1715C33.5647 36.9558 33.0728 37.4476 33.0728 38.0544C33.0728 38.6613 33.5647 39.1531 34.1715 39.1531H51.4843C52.0912 39.1531 52.583 38.6613 52.583 38.0544ZM56.5783 33.3193C56.5783 33.028 56.4626 32.7485 56.2565 32.5425C56.0505 32.3364 55.7711 32.2207 55.4797 32.2207H44.9735C44.3668 32.2207 43.8749 32.7125 43.8749 33.3193C43.8749 33.9262 44.3668 34.418 44.9735 34.418H55.4797C55.7711 34.418 56.0505 34.3022 56.2565 34.0962C56.4626 33.8902 56.5783 33.6107 56.5783 33.3193ZM34.1715 34.418H39.7944C40.4012 34.418 40.8931 33.9262 40.8931 33.3193C40.8931 32.7125 40.4012 32.2207 39.7944 32.2207H34.1715C33.5647 32.2207 33.0728 32.7125 33.0728 33.3193C33.0728 33.9262 33.5647 34.418 34.1715 34.418ZM47.6999 42.7897C47.6999 42.4983 47.5842 42.2189 47.3781 42.0128C47.1721 41.8068 46.8926 41.6911 46.6013 41.6911H40.8304C40.2236 41.6911 39.7317 42.1828 39.7317 42.7897C39.7317 43.3966 40.2236 43.8883 40.8304 43.8883H46.6013C46.8926 43.8883 47.1721 43.7726 47.3781 43.5665C47.5842 43.3605 47.6999 43.0811 47.6999 42.7897ZM34.1715 43.8883H35.6513C36.258 43.8883 36.7499 43.3966 36.7499 42.7897C36.7499 42.1828 36.258 41.6911 35.6513 41.6911H34.1715C33.5647 41.6911 33.0728 42.1828 33.0728 42.7897C33.0728 43.3966 33.5647 43.8883 34.1715 43.8883ZM25.2509 49.3856H14.6813C12.9099 49.3856 11.4688 50.8269 11.4688 52.5983V63.1677C11.4688 64.9392 12.9099 66.3803 14.6813 66.3803H25.2509C27.0223 66.3803 28.4634 64.9392 28.4634 63.1677V52.5983C28.4634 50.8269 27.0223 49.3856 25.2509 49.3856ZM26.2662 63.1677C26.2658 63.4369 26.1587 63.6949 25.9684 63.8853C25.7781 64.0756 25.52 64.1827 25.2509 64.183H14.6813C14.4121 64.1827 14.1541 64.0756 13.9637 63.8853C13.7734 63.695 13.6663 63.4369 13.666 63.1677V52.5983C13.666 52.0384 14.1214 51.5829 14.6813 51.5829H25.2509C25.5201 51.5832 25.7782 51.6903 25.9685 51.8806C26.1588 52.071 26.2659 52.3291 26.2662 52.5983V63.1677Z" fill="#004AAD"/>
<path d="M22.1478 55.2318L19.1759 58.2037L18.0785 57.1062C17.8724 56.9003 17.593 56.7846 17.3016 56.7846C17.0103 56.7846 16.7309 56.9004 16.5249 57.1064C16.3189 57.3124 16.2031 57.5919 16.2031 57.8832C16.2031 58.1746 16.3189 58.454 16.5249 58.66L18.3991 60.5343C18.6136 60.7487 18.8948 60.856 19.1759 60.856C19.457 60.856 19.7383 60.7487 19.9527 60.5343L23.7014 56.7856C23.906 56.5793 24.0205 56.3003 24.0198 56.0098C24.0192 55.7192 23.9035 55.4408 23.6981 55.2353C23.4927 55.0299 23.2142 54.9141 22.9237 54.9135C22.6331 54.9128 22.3542 55.0273 22.1478 55.2318ZM34.1705 53.9507H39.7935C40.4002 53.9507 40.8921 53.4589 40.8921 52.8521C40.8921 52.2452 40.4002 51.7534 39.7935 51.7534H34.1705C33.5638 51.7534 33.0719 52.2452 33.0719 52.8521C33.0719 53.4589 33.5638 53.9507 34.1705 53.9507ZM35.6503 63.4209C36.257 63.4209 36.7489 62.9291 36.7489 62.3223C36.7489 61.7154 36.257 61.2236 35.6503 61.2236H34.1705C33.5638 61.2236 33.0719 61.7154 33.0719 62.3223C33.0719 62.9291 33.5638 63.4209 34.1705 63.4209H35.6503Z" fill="#004AAD"/>
<path d="M69.2662 39.5531C69.2289 39.4137 69.1644 39.2831 69.0766 39.1686C68.9887 39.0542 68.8792 38.9581 68.7542 38.886L63.6288 35.927C63.4286 35.8116 63.1972 35.7621 62.9673 35.7858C62.7375 35.8095 62.5209 35.905 62.3485 36.0588V21.0859C62.3485 20.4791 61.8566 19.9873 61.2499 19.9873C60.6431 19.9873 60.1512 20.4791 60.1512 21.0859V39.753L53.2225 51.7539H44.9727C44.3659 51.7539 43.874 52.2457 43.874 52.8525C43.874 53.4594 44.3659 53.9512 44.9727 53.9512H51.954L50.4891 56.4883H34.1709C33.5642 56.4883 33.0723 56.98 33.0723 57.5869C33.0723 58.1938 33.5642 58.6855 34.1709 58.6855H49.2204L47.755 61.2235H40.8298C40.223 61.2235 39.7312 61.7153 39.7312 62.3222C39.7312 62.9291 40.223 63.4208 40.8298 63.4208H46.4863L44.0899 67.5713C43.3317 68.8845 43.0225 70.3741 43.1955 71.8781L43.3985 73.6533H9.16309C8.46362 73.6533 7.89453 73.0842 7.89453 72.3848V65.2817C7.89453 64.6749 7.40264 64.1831 6.7959 64.1831C6.18916 64.1831 5.69727 64.6749 5.69727 65.2817V72.3848C5.69727 74.2958 7.25205 75.8506 9.16309 75.8506H58.8828C60.7938 75.8506 62.3486 74.2958 62.3486 72.3848V52.1787L69.1565 40.3867C69.2287 40.2618 69.2755 40.1239 69.2943 39.9808C69.3131 39.8378 69.3036 39.6924 69.2662 39.5531ZM62.7718 47.051L59.5492 45.1904L60.8182 42.9925L64.0408 44.853L62.7718 47.051ZM60.1514 72.3848C60.1514 73.0842 59.5823 73.6533 58.8828 73.6533H49.3514C50.0618 73.0989 50.6671 72.4105 51.1184 71.6289L55.4163 64.1862C55.562 63.9338 55.6015 63.6339 55.526 63.3525C55.4506 63.071 55.2665 62.831 55.0142 62.6853C54.7618 62.5396 54.4619 62.5001 54.1804 62.5755C53.899 62.6509 53.659 62.835 53.5133 63.0874L49.2154 70.5303C48.7027 71.4183 47.9019 72.1325 46.9604 72.5416L45.5527 73.1532L45.3784 71.628C45.2596 70.5947 45.4722 69.572 45.9928 68.6701L58.4504 47.0934L61.673 48.954L56.0766 58.6476C55.9332 58.8998 55.8954 59.1985 55.9714 59.4785C56.0474 59.7584 56.2311 59.997 56.4823 60.142C56.7336 60.2871 57.032 60.3269 57.3125 60.2528C57.593 60.1786 57.8327 59.9965 57.9794 59.7462L60.1511 55.9848V72.3848H60.1514ZM65.1393 42.9502L61.9168 41.0897L63.4817 38.3793L66.7043 40.2396L65.1393 42.9502Z" fill="#004AAD"/>
</g>
<defs>
<clipPath id="clip0_1133_36551">
<rect width="75" height="75" fill="white" transform="translate(0 0.850586)"/>
</clipPath>
</defs>
</svg>
