<svg width="16" height="14" viewBox="0 0 16 14" fill="none" xmlns="http://www.w3.org/2000/svg">
<path d="M13.3799 7.04502H15.0003" stroke="#1E1E1E" stroke-linecap="round"/>
<path d="M1 7.04502H9.92534" stroke="#1E1E1E" stroke-linecap="round"/>
<path d="M6.42773 2.43081H14.9991" stroke="#1E1E1E" stroke-linecap="round"/>
<path d="M1 2.43081H2.98021" stroke="#1E1E1E" stroke-linecap="round"/>
<path d="M8.86426 11.6585H15.0006" stroke="#1E1E1E" stroke-linecap="round"/>
<path d="M1 11.6585H5.40943" stroke="#1E1E1E" stroke-linecap="round"/>
<path d="M4.70544 4.06872C5.6592 4.06872 6.43237 3.29555 6.43237 2.34179C6.43237 1.38803 5.6592 0.614861 4.70544 0.614861C3.75169 0.614861 2.97852 1.38803 2.97852 2.34179C2.97852 3.29555 3.75169 4.06872 4.70544 4.06872Z" stroke="#1E1E1E"/>
<path d="M11.6537 8.77168C12.6074 8.77168 13.3806 7.99851 13.3806 7.04475C13.3806 6.091 12.6074 5.31783 11.6537 5.31783C10.6999 5.31783 9.92676 6.091 9.92676 7.04475C9.92676 7.99851 10.6999 8.77168 11.6537 8.77168Z" stroke="#1E1E1E"/>
<path d="M7.13513 13.3851C8.08889 13.3851 8.86206 12.612 8.86206 11.6582C8.86206 10.7045 8.08889 9.93128 7.13513 9.93128C6.18138 9.93128 5.4082 10.7045 5.4082 11.6582C5.4082 12.612 6.18138 13.3851 7.13513 13.3851Z" stroke="#1E1E1E"/>
</svg>
