<svg width="28" height="28" viewBox="0 0 28 28" fill="none" xmlns="http://www.w3.org/2000/svg">
<path d="M1 14H27" stroke="#1E1E1E" stroke-width="2"/>
<path d="M2.94922 21.2222H25.0492" stroke="#1E1E1E" stroke-width="2"/>
<path d="M2.94922 6.77777H24.8658" stroke="#1E1E1E" stroke-width="2"/>
<path d="M13.9993 26.9422H13.9704C10.1138 23.8655 7.6582 19.2592 7.6582 14.1155C7.6582 8.97332 10.1426 4.36555 13.9993 1.28888C17.856 4.36555 20.3549 8.97332 20.3549 14.1155C20.3549 19.2592 17.856 23.8655 13.9993 26.9422Z" stroke="#1E1E1E" stroke-width="2"/>
<path d="M14 27C21.1797 27 27 21.1797 27 14C27 6.8203 21.1797 1 14 1C6.8203 1 1 6.8203 1 14C1 21.1797 6.8203 27 14 27Z" stroke="#1E1E1E" stroke-width="2"/>
</svg>
