<svg width="66" height="77" viewBox="0 0 66 77" fill="none" xmlns="http://www.w3.org/2000/svg">
<path d="M26.1653 16.6261H50.5595C51.0503 16.6261 51.4573 16.2191 51.4573 15.7284V6.30822C51.4573 5.7217 50.9905 5.25488 50.4039 5.25488H26.1653C25.6745 5.25488 25.2676 5.66185 25.2676 6.15261V15.7403C25.2676 16.2311 25.6745 16.6261 26.1653 16.6261ZM27.063 7.05034H49.6618V14.8426H27.063V7.05034Z" fill="#004AAD"/>
<path d="M56.2446 53.4686V6.30801C56.2446 3.08816 53.6232 0.466797 50.4034 0.466797H16.0623C15.8229 0.466797 15.5955 0.562554 15.4279 0.73013L0.777005 15.381C0.6086 15.5492 0.513881 15.7774 0.513672 16.0154V70.4057C0.513672 73.6256 3.13504 76.247 6.35488 76.247H53.9823C60.3262 76.247 65.4852 71.088 65.4852 64.7441C65.4852 59.1782 61.4993 54.522 56.2446 53.4686ZM15.1646 3.53104V11.0719C15.1646 13.2983 13.3452 15.1177 11.1188 15.1177H3.57791L15.1646 3.53104ZM6.35488 74.4395C4.12852 74.4395 2.30913 72.6201 2.30913 70.3938V16.9132H11.1188C14.3387 16.9132 16.96 14.2918 16.96 11.0719V2.26225H50.3914C52.6178 2.26225 54.4372 4.08165 54.4372 6.30801V53.2651C54.2816 53.2532 54.1379 53.2412 53.9823 53.2412C47.6384 53.2412 42.4794 58.4001 42.4794 64.7441C42.4794 68.8257 44.622 72.4047 47.8299 74.4515H6.35488V74.4395ZM53.9823 74.4395C48.6319 74.4395 44.2749 70.0826 44.2749 64.7321C44.2749 59.3817 48.6319 55.0247 53.9823 55.0247C59.3328 55.0247 63.6897 59.3817 63.6897 64.7321C63.6897 70.0826 59.3328 74.4395 53.9823 74.4395Z" fill="#004AAD"/>
<path d="M18.5159 20.6475H6.54616C6.05541 20.6475 5.64844 21.0544 5.64844 21.5452V33.5149C5.64844 34.0056 6.05541 34.4126 6.54616 34.4126H18.5159C19.0066 34.4126 19.4136 34.0056 19.4136 33.5149V21.5452C19.4136 21.0544 19.0066 20.6475 18.5159 20.6475ZM17.6181 32.6172H7.44389V22.4429H17.6181V32.6172ZM24.2374 25.7226H49.2062C49.6969 25.7226 50.1039 25.3156 50.1039 24.8249C50.1039 24.3341 49.6969 23.9272 49.2062 23.9272H24.2374C23.9993 23.9272 23.7709 24.0217 23.6026 24.1901C23.4342 24.3585 23.3397 24.5868 23.3397 24.8249C23.3397 25.063 23.4342 25.2913 23.6026 25.4597C23.7709 25.628 23.9993 25.7226 24.2374 25.7226ZM24.2374 31.1449H41.0309C41.5216 31.1449 41.9286 30.7379 41.9286 30.2472C41.9286 29.7564 41.5216 29.3494 41.0309 29.3494H24.2374C23.9993 29.3494 23.7709 29.444 23.6026 29.6124C23.4342 29.7807 23.3397 30.0091 23.3397 30.2472C23.3397 30.4853 23.4342 30.7136 23.6026 30.8819C23.7709 31.0503 23.9993 31.1449 24.2374 31.1449ZM18.5159 38.3506H6.54616C6.05541 38.3506 5.64844 38.7576 5.64844 39.2484V51.2181C5.64844 51.7088 6.05541 52.1158 6.54616 52.1158H18.5159C19.0066 52.1158 19.4136 51.7088 19.4136 51.2181V39.2484C19.4136 38.7456 19.0066 38.3506 18.5159 38.3506ZM17.6181 50.3203H7.44389V40.1461H17.6181V50.3203ZM24.2374 43.4258H49.2062C49.6969 43.4258 50.1039 43.0188 50.1039 42.5281C50.1039 42.0373 49.6969 41.6303 49.2062 41.6303H24.2374C23.9993 41.6303 23.7709 41.7249 23.6026 41.8933C23.4342 42.0616 23.3397 42.29 23.3397 42.5281C23.3397 42.7662 23.4342 42.9945 23.6026 43.1629C23.7709 43.3312 23.9993 43.4258 24.2374 43.4258ZM41.0309 47.0406H24.2374C23.7466 47.0406 23.3397 47.4476 23.3397 47.9384C23.3397 48.4291 23.7466 48.8361 24.2374 48.8361H41.0309C41.5216 48.8361 41.9286 48.4291 41.9286 47.9384C41.9286 47.4476 41.5216 47.0406 41.0309 47.0406ZM18.5159 56.0419H6.54616C6.05541 56.0419 5.64844 56.4488 5.64844 56.9396V68.9093C5.64844 69.4 6.05541 69.807 6.54616 69.807H18.5159C19.0066 69.807 19.4136 69.4 19.4136 68.9093V56.9396C19.4136 56.4369 19.0066 56.0419 18.5159 56.0419ZM17.6181 68.0116H7.44389V57.8373H17.6181V68.0116ZM39.3551 59.3216H24.2374C23.7466 59.3216 23.3397 59.7285 23.3397 60.2193C23.3397 60.71 23.7466 61.117 24.2374 61.117H39.3551C39.5932 61.117 39.8215 61.0224 39.9899 60.8541C40.1582 60.6857 40.2528 60.4574 40.2528 60.2193C40.2528 59.9812 40.1582 59.7528 39.9899 59.5845C39.8215 59.4161 39.5932 59.3216 39.3551 59.3216ZM32.6281 64.7319H24.2374C23.7466 64.7319 23.3397 65.1388 23.3397 65.6296C23.3397 66.1203 23.7466 66.5273 24.2374 66.5273H32.6281C32.8662 66.5273 33.0946 66.4327 33.2629 66.2644C33.4313 66.096 33.5259 65.8677 33.5259 65.6296C33.5259 65.3915 33.4313 65.1632 33.2629 64.9948C33.0946 64.8264 32.8662 64.7319 32.6281 64.7319ZM58.5066 60.2193C58.3377 60.0523 58.1097 59.9587 57.8722 59.9587C57.6347 59.9587 57.4068 60.0523 57.2378 60.2193L53.9821 63.4631L50.7263 60.2193C50.3792 59.8722 49.8046 59.8722 49.4575 60.2193C49.1104 60.5664 49.1104 61.1409 49.4575 61.4881L52.7133 64.7319L49.4575 67.9756C49.1104 68.3228 49.1104 68.8973 49.4575 69.2444C49.6371 69.424 49.8645 69.5078 50.0919 69.5078C50.3193 69.5078 50.5468 69.424 50.7263 69.2444L53.9821 66.0006L57.2378 69.2444C57.4174 69.424 57.6448 69.5078 57.8722 69.5078C58.0996 69.5078 58.3271 69.424 58.5066 69.2444C58.8537 68.8973 58.8537 68.3228 58.5066 67.9756L55.2509 64.7319L58.5066 61.4881C58.8537 61.1409 58.8537 60.5664 58.5066 60.2193Z" fill="#004AAD"/>
<path d="M9.50369 30.5702C9.68324 30.7497 9.91066 30.8335 10.1381 30.8335C10.3655 30.8335 10.5929 30.7497 10.7725 30.5702L12.532 28.8106L14.2916 30.5702C14.4711 30.7497 14.6985 30.8335 14.926 30.8335C15.1534 30.8335 15.3808 30.7497 15.5604 30.5702C15.9075 30.2231 15.9075 29.6485 15.5604 29.3014L13.8008 27.5419L15.5604 25.7823C15.9075 25.4352 15.9075 24.8606 15.5604 24.5135C15.2132 24.1664 14.6387 24.1664 14.2916 24.5135L12.532 26.2611L10.7725 24.5016C10.4254 24.1544 9.85081 24.1544 9.50369 24.5016C9.15657 24.8487 9.15657 25.4232 9.50369 25.7703L11.2632 27.5299L9.50369 29.2894C9.1446 29.6485 9.1446 30.2111 9.50369 30.5702ZM9.50369 48.2614C9.68324 48.4409 9.91066 48.5247 10.1381 48.5247C10.3655 48.5247 10.5929 48.4409 10.7725 48.2614L12.532 46.5019L14.2916 48.2614C14.4711 48.4409 14.6985 48.5247 14.926 48.5247C15.1534 48.5247 15.3808 48.4409 15.5604 48.2614C15.9075 47.9143 15.9075 47.3397 15.5604 46.9926L13.8008 45.2331L15.5604 43.4735C15.9075 43.1264 15.9075 42.5519 15.5604 42.2047C15.2132 41.8576 14.6387 41.8576 14.2916 42.2047L12.532 43.9643L10.7725 42.2047C10.4254 41.8576 9.85081 41.8576 9.50369 42.2047C9.15657 42.5519 9.15657 43.1264 9.50369 43.4735L11.2632 45.2331L9.50369 46.9926C9.1446 47.3397 9.1446 47.9023 9.50369 48.2614ZM9.50369 65.9526C9.68324 66.1322 9.91066 66.2159 10.1381 66.2159C10.3655 66.2159 10.5929 66.1322 10.7725 65.9526L12.532 64.1931L14.2916 65.9526C14.4711 66.1322 14.6985 66.2159 14.926 66.2159C15.1534 66.2159 15.3808 66.1322 15.5604 65.9526C15.9075 65.6055 15.9075 65.0309 15.5604 64.6838L13.8008 62.9243L15.5604 61.1647C15.9075 60.8176 15.9075 60.2431 15.5604 59.8959C15.2132 59.5488 14.6387 59.5488 14.2916 59.8959L12.532 61.6555L10.7725 59.8959C10.4254 59.5488 9.85081 59.5488 9.50369 59.8959C9.15657 60.2431 9.15657 60.8176 9.50369 61.1647L11.2632 62.9243L9.50369 64.6838C9.1446 65.0309 9.1446 65.5935 9.50369 65.9526Z" fill="#004AAD"/>
</svg>
