<svg width="71" height="76" viewBox="0 0 71 76" fill="none" xmlns="http://www.w3.org/2000/svg">
<path d="M69.125 62.5583C68.5186 62.5583 68.0264 63.0505 68.0264 63.6569V71.3852C68.0264 72.636 67.009 73.6533 65.7582 73.6533H39.9907C38.7397 73.6533 37.7224 72.636 37.7224 71.3852V63.6569C37.7224 63.0505 37.2304 62.5583 36.6238 62.5583C36.0172 62.5583 35.5251 63.0505 35.5251 63.6569V71.3852C35.524 72.1833 35.7384 72.9669 36.1455 73.6533H33.1672L30.8542 54.8575L31.8796 52.1282L33.582 53.1626C33.9345 53.3768 34.3391 53.4898 34.7516 53.4893C35.4629 53.4893 36.1632 53.1569 36.6017 52.5442L40.8901 46.5457C42.8793 47.165 44.8238 47.9198 46.71 48.8047C46.5967 49.0982 46.5387 49.4102 46.539 49.7248V51.8523H39.9907C37.5806 51.8523 35.5791 53.8138 35.5292 56.2246C35.5287 56.2393 35.5287 56.2539 35.5292 56.2686C35.571 58.4189 36.4396 60.4337 37.9742 61.9419C39.5123 63.4526 41.5465 64.2846 43.702 64.2846H48.25V64.3675C48.25 65.3014 49.0098 66.0613 49.9436 66.0613H55.8053C56.7392 66.0613 57.499 65.3014 57.499 64.3675V64.2846H62.0469C64.203 64.2846 66.2372 63.4526 67.7747 61.942C69.3099 60.4337 70.1785 58.4189 70.2197 56.2687C70.2203 56.2543 70.2203 56.2394 70.2197 56.2251C70.1705 53.8139 68.1689 51.8523 65.7582 51.8523H59.2099V49.7248C59.2099 48.2269 57.9077 47.0081 56.3066 47.0081H49.4423C49.091 47.0075 48.7422 47.0673 48.4112 47.1849C46.0098 46.0049 43.5135 45.0287 40.9486 44.2667L37.0748 41.4124C36.165 40.7424 35.0062 40.6308 34.0197 41.0617V39.2255C35.0835 38.4656 36.0333 37.593 36.899 36.729C39.2778 34.3543 41.4881 31.5962 41.5552 27.5285C41.5556 27.5216 41.5556 27.5141 41.5556 27.5074L41.554 26.9809C43.8668 26.9809 45.7487 25.0983 45.7487 22.7837V21.3184C45.7495 20.499 45.5094 19.6975 45.0582 19.0135V11.0371C45.0571 9.9322 44.6815 8.86028 43.9927 7.99639C44.3562 6.97967 44.5414 5.90782 44.5402 4.82808V2.33374C44.5408 1.51606 43.8755 0.850586 43.0578 0.850586H19.861C16.5834 0.850586 13.8585 3.19829 13.3087 6.33921C11.2213 6.91709 9.69292 8.83003 9.69292 11.037V19.013C9.24118 19.697 9.00076 20.4988 9.00166 21.3184V22.7837C9.00166 25.0977 10.8843 26.9809 13.197 26.9809H13.2441L13.2459 27.6035C13.2459 27.6108 13.2465 27.6183 13.2465 27.6257C13.3414 31.6901 15.5712 34.4327 17.9659 36.7908C18.8019 37.6141 19.7152 38.4445 20.7308 39.1746V41.06C19.745 40.6308 18.5879 40.7424 17.6792 41.4118L13.8077 44.2643C11.0461 45.0849 8.36436 46.1534 5.79512 47.4566C2.5291 49.1143 0.5 52.42 0.5 56.0827V59.6148C0.5 59.9062 0.615748 60.1857 0.821782 60.3917C1.02782 60.5977 1.30726 60.7135 1.59863 60.7135C1.89001 60.7135 2.16945 60.5977 2.37548 60.3917C2.58152 60.1857 2.69727 59.9062 2.69727 59.6148V56.0827C2.69727 53.252 4.26509 50.697 6.7896 49.4159C9.06304 48.2626 11.4293 47.3021 13.8633 46.5445L18.1524 52.5436C18.5904 53.1569 19.2906 53.4895 20.0019 53.4895C20.4036 53.4895 20.8087 53.383 21.172 53.1628L22.8806 52.1247L23.8969 54.8559L21.5839 73.6533H10.8354V64.9306C10.8354 64.6392 10.7196 64.3598 10.5136 64.1538C10.3075 63.9477 10.0281 63.832 9.73672 63.832C9.44534 63.832 9.1659 63.9477 8.95987 64.1538C8.75383 64.3598 8.63809 64.6392 8.63809 64.9306V73.6533H3.33301C3.16443 73.6532 3.0028 73.5862 2.8836 73.467C2.7644 73.3478 2.69738 73.1861 2.69727 73.0176V64.7378C2.69727 64.1314 2.20508 63.6392 1.59863 63.6392C0.992188 63.6392 0.5 64.1314 0.5 64.7378V73.0176C0.5 74.5797 1.7709 75.8506 3.33301 75.8506H65.7582C68.2205 75.8506 70.2236 73.8473 70.2236 71.3852V63.6569C70.2236 63.0505 69.7316 62.5583 69.125 62.5583ZM55.3017 63.8641H50.4472V62.5073H55.3017V63.8641ZM56.3066 49.2054C56.6894 49.2054 57.0126 49.4434 57.0126 49.7248V51.8523H53.2761C52.7985 50.8691 52.1575 49.9741 51.3805 49.2054H56.3066ZM48.7363 49.8697C49.5245 50.3971 50.205 51.07 50.7412 51.8523H48.7363V49.8697ZM65.7582 54.0496C66.9753 54.0496 67.9864 55.0344 68.0224 56.2491C67.9474 59.4707 65.2719 62.0874 62.0469 62.0874H57.499V62.0039C57.499 61.07 56.7392 60.3101 55.8053 60.3101H49.9436C49.0098 60.3101 48.25 61.07 48.25 62.0039V62.0874H43.702C40.4771 62.0874 37.8015 59.4707 37.7265 56.2497C37.7625 55.0344 38.7742 54.0495 39.9907 54.0495L65.7582 54.0496ZM34.6618 43.2259C34.8137 43.0927 35.0067 43.0155 35.2086 43.0074C35.4105 42.9993 35.6091 43.0606 35.7712 43.1812L38.9305 45.5088L34.8146 51.2658C34.8044 51.2798 34.7894 51.2895 34.7724 51.293C34.7555 51.2965 34.7379 51.2936 34.723 51.2847L29.2316 47.9487L34.6618 43.2259ZM27.3771 49.3929L29.9587 50.9614L28.9678 53.6255H25.7835L24.793 50.9632L27.3771 49.3929ZM27.3771 46.6492L22.9281 42.7806V40.4805C24.2614 41.106 25.7514 41.5064 27.436 41.5208H27.4618C29.0879 41.4956 30.5299 41.1127 31.8226 40.5159V42.7835L27.3771 46.6492ZM43.5515 21.3184V22.7837C43.5515 23.8864 42.6554 24.7836 41.554 24.7836H41.5471L41.5306 19.3179H41.554C42.6556 19.3185 43.5515 20.2151 43.5515 21.3184ZM42.8609 11.037V17.3295C42.4391 17.1912 41.9979 17.1209 41.554 17.1212H41.324C40.9509 15.65 40.0892 14.3644 38.9185 13.4551C40.4548 12.7722 41.7823 11.6936 42.7651 10.3296C42.8281 10.558 42.8608 10.796 42.8608 11.0368L42.8609 11.037ZM13.1973 24.7836C12.0957 24.7836 11.1992 23.8864 11.1992 22.7837V21.3184C11.1992 20.2157 12.0957 19.3185 13.1973 19.3185H13.2207L13.2373 24.7836H13.1973ZM11.8903 17.3295V11.0371C11.8903 9.65474 12.9929 8.48228 14.4006 8.36729C14.6678 8.34536 14.9178 8.22651 15.1035 8.03312C15.2891 7.83974 15.3977 7.58515 15.4087 7.31729C15.5078 4.92358 17.4636 3.04785 19.8611 3.04785H42.3436V4.82793C42.3436 8.81626 39.0986 12.0606 35.1109 12.0606H19.9246C18.5875 12.0606 17.491 13.1141 17.4223 14.4347C17.0751 15.9722 15.7539 17.1206 14.3154 17.1206C14.3154 17.1212 12.3017 17.1944 11.8903 17.3295ZM19.5075 35.2252C17.4441 33.1933 15.5243 30.8616 15.4432 27.5852L15.4174 19.1909C17.4481 18.7183 19.1384 16.9771 19.5945 14.7826C19.682 14.3638 19.7546 14.2579 19.9246 14.2579H35.1688C37.5005 14.4399 39.3241 16.402 39.331 18.7491L39.3584 27.5027C39.3 30.7832 37.3958 33.1281 35.3467 35.1738C33.2209 37.296 30.7925 39.2666 27.4411 39.3234C24.0925 39.2897 21.6491 37.3343 19.5075 35.2252ZM20.0316 51.2847C20.0168 51.2936 19.9991 51.2966 19.9822 51.2931C19.9652 51.2896 19.9502 51.2799 19.9401 51.2658L15.8236 45.509L18.9828 43.1812C19.1449 43.0606 19.3435 42.9992 19.5454 43.0073C19.7473 43.0154 19.9403 43.0925 20.0923 43.2257L25.5225 47.9482L20.0316 51.2847ZM23.7978 73.6533L25.9916 55.8228H28.7595L30.9534 73.6533H23.7978Z" fill="#004AAD"/>
</svg>
