<svg width="78" height="78" viewBox="0 0 78 78" fill="none" xmlns="http://www.w3.org/2000/svg">
<path d="M2.43992 40.4324L12.2171 44.1714C12.8688 44.4198 13.5924 44.3995 14.2291 44.1151C14.8659 43.8306 15.3638 43.3052 15.6136 42.6541L15.7911 42.19C15.8817 42.2396 15.9719 42.2899 16.0624 42.3394C16.5916 43.3608 17.2242 44.3252 17.9503 45.2174C17.6204 45.771 17.4432 46.4022 17.4365 47.0466C17.4299 47.691 17.5942 48.3257 17.9126 48.886C18.2311 49.4463 18.6923 49.9121 19.2493 50.2362C19.8064 50.5603 20.4394 50.7309 21.0838 50.7308C21.1047 50.7308 21.1258 50.7296 21.1469 50.7292C21.2454 51.6209 21.6696 52.4449 22.3382 53.0432C23.0067 53.6415 23.8725 53.972 24.7697 53.9714C24.7912 53.9714 24.8126 53.9701 24.8339 53.9698C24.9315 54.8608 25.3546 55.6844 26.0221 56.2827C26.6895 56.881 27.5543 57.2118 28.4507 57.2118C28.4735 57.2118 28.4965 57.21 28.5195 57.2095C28.5977 57.9122 28.8783 58.577 29.3273 59.1232C29.7763 59.6693 30.3743 60.0732 31.0486 60.2858C31.7229 60.4983 32.4444 60.5104 33.1254 60.3205C33.8064 60.1306 34.4176 59.7468 34.8846 59.216L35.5363 58.4749L39.0858 61.4868C39.7421 62.0458 40.5764 62.3522 41.4385 62.3506C41.5401 62.3506 41.6422 62.3464 41.7448 62.338C42.6263 62.2676 43.452 61.8783 44.0674 61.2432C44.6828 60.608 45.0457 59.7704 45.0882 58.887C45.9427 58.8574 46.7594 58.5279 47.3952 57.9563C48.031 57.3847 48.4452 56.6075 48.5652 55.761C48.665 55.7694 48.765 55.7736 48.8651 55.7738C49.7242 55.7756 50.5562 55.4736 51.2142 54.9214C51.8722 54.3691 52.3138 53.602 52.461 52.7557C52.616 52.7766 52.7722 52.7877 52.9286 52.7888C53.0302 52.7888 53.1323 52.7846 53.2349 52.7763C53.8185 52.7316 54.3826 52.5456 54.8784 52.2344C55.3743 51.9232 55.787 51.4962 56.0811 50.99C56.3751 50.4838 56.5417 49.9138 56.5665 49.3289C56.5912 48.744 56.4734 48.1619 56.2231 47.6327C57.5467 46.7107 58.8838 45.3721 60.28 43.5719C60.2877 43.562 60.2952 43.552 60.3024 43.542C60.782 42.8951 61.42 42.3825 62.1552 42.0537L62.3851 42.6548C62.5084 42.9775 62.6941 43.2727 62.9316 43.5236C63.169 43.7745 63.4535 43.9762 63.7689 44.1171C64.0843 44.258 64.4244 44.3354 64.7697 44.3448C65.115 44.3543 65.4588 44.2956 65.7815 44.1721L75.5588 40.4332C76.2099 40.1833 76.7353 39.6854 77.0197 39.0487C77.3042 38.4119 77.3244 37.6884 77.0761 37.0367L69.43 17.0421C69.1802 16.391 68.6823 15.8656 68.0456 15.5812C67.4089 15.2967 66.6853 15.2764 66.0337 15.5248L56.2566 19.2636C55.6055 19.5134 55.08 20.0113 54.7955 20.648C54.511 21.2848 54.4908 22.0084 54.7392 22.6601L54.8605 22.977C54.0765 23.2494 53.2932 23.5236 52.5105 23.7997C48.5211 22.6687 44.6549 22.0216 40.0361 21.7104C38.8089 21.6135 37.5916 21.9927 36.6366 22.7694L33.7024 25.1003C32.0266 25.0473 29.9661 24.9826 27.5209 24.9061L23.1823 22.8621L23.2596 22.6601C23.5079 22.0084 23.4875 21.2848 23.203 20.6481C22.9185 20.0114 22.3931 19.5135 21.742 19.2637L11.9648 15.5248C11.3131 15.2765 10.5896 15.2968 9.95297 15.5813C9.31629 15.8657 8.81843 16.3911 8.56858 17.0421L0.922616 37.0361C0.674295 37.6877 0.694583 38.4113 0.97903 39.048C1.26348 39.6847 1.78885 40.1826 2.43992 40.4324ZM20.2547 48.0283C20.0043 47.8077 19.8517 47.4967 19.8303 47.1637C19.809 46.8306 19.9206 46.5027 20.1407 46.2518L22.1269 43.993C22.3482 43.7457 22.6582 43.5958 22.9895 43.576C23.3207 43.5561 23.6464 43.6679 23.8957 43.8869C24.145 44.106 24.2977 44.4146 24.3206 44.7457C24.3435 45.0768 24.2347 45.4035 24.018 45.6548L22.0308 47.9143C21.8093 48.1632 21.4985 48.3147 21.166 48.336C20.8335 48.3573 20.506 48.2467 20.2546 48.028L20.2547 48.0283ZM23.9406 51.2694C23.6903 51.0489 23.5377 50.7381 23.5162 50.4052C23.4947 50.0722 23.6061 49.7444 23.826 49.4935L26.8994 45.9983C27.1205 45.7499 27.4309 45.5991 27.7628 45.5788C28.0947 45.5585 28.4211 45.6704 28.6708 45.8899C28.9206 46.1095 29.0732 46.4189 29.0956 46.7507C29.118 47.0825 29.0081 47.4096 28.7901 47.6606L27.9456 48.6211L27.9446 48.6223L25.7167 51.1559C25.496 51.4061 25.1851 51.5585 24.8521 51.5798C24.5192 51.6011 24.1914 51.4895 23.9406 51.2694ZM27.6265 54.5105C27.3762 54.2898 27.2236 53.9789 27.2022 53.6458C27.1808 53.3128 27.2924 52.9849 27.5125 52.734L29.7406 50.1999C29.9619 49.9522 30.2721 49.802 30.6037 49.782C30.9352 49.7621 31.2613 49.874 31.5107 50.0934C31.7601 50.3127 31.9127 50.6218 31.9352 50.9532C31.9578 51.2846 31.8484 51.6115 31.6309 51.8626L30.4639 53.19L29.403 54.3962C29.1824 54.6466 28.8714 54.7993 28.5384 54.8207C28.2053 54.8421 27.8774 54.7306 27.6265 54.5105ZM33.0889 57.6373C32.8673 57.8837 32.5574 58.0327 32.2266 58.0521C31.8958 58.0715 31.5707 57.9596 31.3218 57.7408C31.0729 57.5219 30.9204 57.2138 30.8973 56.8832C30.8742 56.5526 30.9824 56.2263 31.1984 55.9749L32.2592 54.7689C32.4803 54.5205 32.7907 54.3697 33.1226 54.3494C33.4545 54.3292 33.7809 54.441 34.0306 54.6606C34.2803 54.8801 34.433 55.1895 34.4554 55.5213C34.4777 55.8531 34.3679 56.1802 34.1499 56.4312L33.0889 57.6373ZM56.978 21.6231C56.9904 21.5943 57.0086 21.5682 57.0313 21.5465C57.054 21.5247 57.0808 21.5078 57.1102 21.4966L66.8876 17.7577C66.9141 17.7477 66.9423 17.7426 66.9706 17.7427C67.0194 17.7427 67.0671 17.7573 67.1075 17.7847C67.1479 17.8121 67.1791 17.851 67.1972 17.8963L74.8437 37.8899C74.8655 37.9493 74.8633 38.0149 74.8374 38.0728C74.8116 38.1306 74.7642 38.176 74.7054 38.1994L64.928 41.9384C64.8686 41.9602 64.8029 41.958 64.7451 41.9322C64.6873 41.9064 64.6418 41.859 64.6184 41.8002L56.972 21.8062C56.9607 21.7768 56.9554 21.7455 56.9565 21.7141C56.9575 21.6826 56.9648 21.6517 56.978 21.6231ZM38.1236 24.6413C38.6124 24.2353 39.242 24.0392 39.8749 24.0958C44.4584 24.4052 48.2642 25.0549 52.2145 26.2025C52.4544 26.2722 52.7101 26.2649 52.9456 26.1818C54.003 25.8082 54.9298 25.484 55.7145 25.2118L61.2998 39.817C60.1401 40.3139 59.1325 41.1088 58.3795 42.1211C57.0893 43.7823 55.8518 45.0096 54.689 45.7841L40.8649 32.7566C40.5135 32.4255 40.0964 32.1721 39.6406 32.013C39.1848 31.8539 38.7006 31.7927 38.2195 31.8332C37.7385 31.8737 37.2714 32.0151 36.8486 32.2483C36.4259 32.4814 36.057 32.8009 35.766 33.1861C35.4009 33.6746 35.1244 34.2233 34.949 34.8073C34.9347 34.8539 34.9232 34.9014 34.9148 34.9494C34.4251 37.7135 33.2295 39.3855 31.5483 39.6559C31.4337 39.6743 31.3224 39.7093 31.218 39.7598C31.0809 39.826 30.9299 39.8585 30.7778 39.8546C30.6256 39.8506 30.4765 39.8102 30.3431 39.7369C30.2097 39.6636 30.0957 39.5594 30.0108 39.433C29.9259 39.3067 29.8724 39.1618 29.8549 39.0106L29.9594 31.6188C29.9564 31.463 29.9907 31.3087 30.0594 31.1688C30.1282 31.0289 30.2293 30.9075 30.3545 30.8146L38.1236 24.6413ZM26.726 27.1748C26.8739 27.2445 27.0346 27.2831 27.1981 27.2882C28.51 27.3292 29.7129 27.367 30.8069 27.4014L28.8674 28.9425C28.4657 29.2564 28.1404 29.6572 27.9156 30.1147C27.6908 30.5722 27.5725 31.0747 27.5694 31.5844L27.4641 39.0382C27.4635 39.0727 27.4645 39.1071 27.4671 39.1415C27.5054 39.6707 27.669 40.1832 27.9445 40.6367C28.22 41.0902 28.5994 41.4717 29.0514 41.7496C29.5034 42.0275 30.0151 42.1938 30.5441 42.2349C31.0731 42.276 31.6043 42.1906 32.0938 41.9859C33.4578 41.7169 36.3255 40.5399 37.2549 35.4447C37.3486 35.1507 37.4902 34.8743 37.674 34.6265C37.7626 34.5093 37.8748 34.412 38.0035 34.3411C38.1321 34.2701 38.2743 34.2271 38.4207 34.2147C38.5671 34.2024 38.7145 34.2211 38.8532 34.2695C38.9919 34.3179 39.1189 34.395 39.2258 34.4958L53.704 48.1401C54.253 48.6574 54.3356 49.4379 53.8963 49.9559C53.6793 50.2089 53.3712 50.366 53.0391 50.3932C52.7069 50.4205 52.3774 50.3156 52.122 50.1015L51.3436 49.4412L51.3412 49.444C51.3041 49.41 51.2665 49.3762 51.2284 49.3433L45.2245 44.2503C44.9824 44.0482 44.6702 43.95 44.3561 43.977C44.0419 44.0041 43.7511 44.1542 43.5471 44.3946C43.3431 44.6351 43.2424 44.9464 43.2669 45.2608C43.2914 45.5752 43.4391 45.8672 43.6779 46.0731L49.6824 51.1663C49.8098 51.2728 49.915 51.4035 49.9917 51.5508C50.0684 51.6981 50.1152 51.8592 50.1294 52.0247C50.1436 52.1902 50.1249 52.3568 50.0744 52.5151C50.0239 52.6733 49.9426 52.82 49.8352 52.9466C49.7277 53.0733 49.5963 53.1774 49.4484 53.2531C49.3005 53.3287 49.1391 53.3743 48.9735 53.3873C48.8079 53.4002 48.6414 53.3803 48.4836 53.3286C48.3257 53.277 48.1796 53.1945 48.0538 53.0862L47.3251 52.468L47.3221 52.4656L47.3158 52.46L41.5278 47.5501C41.2855 47.3495 40.974 47.2525 40.6607 47.2802C40.3474 47.3078 40.0576 47.4578 39.8541 47.6976C39.6507 47.9374 39.5499 48.2478 39.5738 48.5614C39.5976 48.875 39.744 49.1666 39.9814 49.3729L45.7692 54.2827C45.8953 54.3896 45.9991 54.5203 46.0746 54.6674C46.1502 54.8144 46.196 54.9749 46.2095 55.1396C46.2231 55.3044 46.204 55.4702 46.1535 55.6276C46.1029 55.785 46.0219 55.9309 45.9149 56.057C45.808 56.183 45.6773 56.2868 45.5302 56.3623C45.3832 56.4379 45.2227 56.4837 45.0579 56.4973C44.8932 56.5108 44.7274 56.4917 44.57 56.4412C44.4126 56.3906 44.2667 56.3096 44.1406 56.2026L43.8088 55.9211L43.8076 55.9199L38.4828 51.403C38.2405 51.2025 37.9289 51.1055 37.6156 51.1331C37.3023 51.1607 37.0126 51.3107 36.8091 51.5505C36.6056 51.7904 36.5049 52.1007 36.5287 52.4143C36.5525 52.7279 36.699 53.0195 36.9363 53.2259L42.0384 57.5541L42.2613 57.7431C42.5113 57.9604 42.6655 58.2675 42.6906 58.5978C42.7157 58.928 42.6096 59.2549 42.3953 59.5075C42.181 59.76 41.8758 59.918 41.5459 59.9471C41.2159 59.9761 40.8878 59.874 40.6327 59.6628L36.767 56.3842C36.8396 56.05 36.8653 55.7074 36.8432 55.3662C36.7959 54.6098 36.5138 53.8871 36.0362 53.2987C35.5585 52.7103 34.9092 52.2856 34.1787 52.0837C34.325 51.6002 34.3691 51.0914 34.3082 50.5899C34.2474 50.0884 34.0829 49.605 33.8253 49.1704C33.5676 48.7358 33.2225 48.3596 32.8116 48.0655C32.4008 47.7714 31.9334 47.566 31.4389 47.4622C31.5476 46.8456 31.4959 46.2113 31.2887 45.6205C31.0815 45.0296 30.7257 44.502 30.2557 44.0883L29.4662 44.9858L30.2556 44.0881C29.7438 43.6391 29.1168 43.342 28.4452 43.2303C27.7736 43.1187 27.0842 43.1969 26.4546 43.4561C26.2217 42.8788 25.8448 42.3706 25.3599 41.9802C24.875 41.5897 24.2981 41.3299 23.6844 41.2254C23.0706 41.121 22.4403 41.1754 21.8535 41.3836C21.2668 41.5917 20.743 41.9466 20.3322 42.4144L19.5156 43.343C18.9449 42.5839 18.4451 41.7741 18.0223 40.9237C17.9122 40.7063 17.7383 40.5277 17.5239 40.412C17.234 40.2554 16.9439 40.0968 16.6537 39.9361L22.3266 25.1014L26.726 27.1748ZM3.15486 37.89L10.8014 17.896C10.8194 17.8507 10.8507 17.8118 10.8911 17.7844C10.9315 17.757 10.9791 17.7424 11.0279 17.7424C11.0563 17.7423 11.0845 17.7474 11.111 17.7574L20.8884 21.4963C20.9472 21.5197 20.9946 21.5652 21.0204 21.623C21.0462 21.6808 21.0484 21.7464 21.0266 21.8059L13.3808 41.8C13.3575 41.859 13.312 41.9065 13.2542 41.9323C13.1963 41.9582 13.1306 41.9604 13.0712 41.9385L3.29397 38.1996C3.23499 38.1763 3.18743 38.1309 3.16144 38.0731C3.13546 38.0153 3.1331 37.9496 3.15486 37.89ZM38.9993 0.600586C39.3163 0.600586 39.6203 0.72652 39.8445 0.950685C40.0687 1.17485 40.1946 1.47888 40.1946 1.7959V13.6594C40.1946 13.9764 40.0687 14.2804 39.8445 14.5046C39.6203 14.7288 39.3163 14.8547 38.9993 14.8547C38.6823 14.8547 38.3782 14.7288 38.1541 14.5046C37.9299 14.2804 37.804 13.9764 37.804 13.6594V1.7959C37.804 1.47888 37.9299 1.17485 38.1541 0.950685C38.3782 0.72652 38.6823 0.600586 38.9993 0.600586ZM58.1274 5.71966C58.402 5.87817 58.6023 6.13925 58.6843 6.44546C58.7664 6.75166 58.7234 7.07792 58.5649 7.35246L52.6318 17.6289C52.4722 17.9012 52.2113 18.0993 51.9062 18.1799C51.601 18.2606 51.2763 18.2173 51.003 18.0595C50.7296 17.9017 50.5298 17.6421 50.4471 17.3375C50.3644 17.0329 50.4055 16.7079 50.5615 16.4335L56.4945 6.15715C56.573 6.02119 56.6775 5.90203 56.802 5.80646C56.9266 5.7109 57.0687 5.6408 57.2203 5.60018C57.372 5.55955 57.5301 5.5492 57.6858 5.5697C57.8414 5.5902 57.9915 5.64116 58.1274 5.71966ZM62.3772 53.728C62.1026 53.5695 61.9023 53.3085 61.8203 53.0022C61.7382 52.696 61.7811 52.3697 61.9396 52.0952C62.0982 51.8206 62.3592 51.6203 62.6655 51.5382C62.9717 51.4562 63.298 51.4991 63.5725 51.6576L71.6926 56.3458C71.9671 56.5043 72.1675 56.7654 72.2495 57.0716C72.3316 57.3778 72.2886 57.7041 72.1301 57.9786C71.9716 58.2532 71.7105 58.4535 71.4043 58.5356C71.0981 58.6177 70.7718 58.5747 70.4973 58.4162L62.3772 53.728ZM58.5649 70.3486C58.6446 70.4846 58.6967 70.635 58.718 70.7912C58.7394 70.9473 58.7296 71.1062 58.6893 71.2586C58.649 71.411 58.579 71.5539 58.4833 71.6792C58.3875 71.8044 58.2679 71.9094 58.1314 71.9883C57.9949 72.0671 57.8441 72.1181 57.6878 72.1384C57.5315 72.1587 57.3727 72.1479 57.2206 72.1066C57.0684 72.0653 56.926 71.9944 56.8014 71.8978C56.6768 71.8012 56.5725 71.6809 56.4946 71.5439L51.8065 63.4238C51.7267 63.2878 51.6747 63.1374 51.6533 62.9812C51.632 62.825 51.6417 62.6662 51.682 62.5138C51.7223 62.3614 51.7924 62.2184 51.8881 62.0932C51.9839 61.968 52.1035 61.863 52.24 61.7841C52.3765 61.7053 52.5272 61.6543 52.6836 61.634C52.8399 61.6136 52.9987 61.6244 53.1508 61.6657C53.303 61.707 53.4454 61.778 53.57 61.8746C53.6946 61.9712 53.7988 62.0915 53.8767 62.2285L58.5649 70.3486ZM37.804 75.9053V66.5306C37.804 66.2136 37.9299 65.9095 38.1541 65.6854C38.3782 65.4612 38.6823 65.3353 38.9993 65.3353C39.3163 65.3353 39.6203 65.4612 39.8445 65.6854C40.0687 65.9095 40.1946 66.2136 40.1946 66.5306V75.9053C40.1946 76.2223 40.0687 76.5263 39.8445 76.7505C39.6203 76.9747 39.3163 77.1006 38.9993 77.1006C38.6823 77.1006 38.3782 76.9747 38.1541 76.7505C37.9299 76.5263 37.804 76.2223 37.804 75.9053ZM20.4678 72.1418C20.258 72.1416 20.052 72.0863 19.8705 71.9813C19.6889 71.8763 19.5382 71.7254 19.4334 71.5437C19.3286 71.362 19.2735 71.156 19.2735 70.9463C19.2736 70.7365 19.3288 70.5305 19.4337 70.3489L24.1218 62.2287C24.2003 62.0927 24.3048 61.9736 24.4293 61.878C24.5539 61.7824 24.696 61.7123 24.8477 61.6717C24.9993 61.6311 25.1574 61.6207 25.3131 61.6412C25.4687 61.6617 25.6188 61.7126 25.7547 61.7911C25.8907 61.8696 26.0098 61.9741 26.1054 62.0986C26.2009 62.2231 26.271 62.3653 26.3117 62.5169C26.3523 62.6685 26.3627 62.8267 26.3422 62.9823C26.3217 63.1379 26.2708 63.288 26.1923 63.424L21.5041 71.5442C21.3991 71.7261 21.248 71.8771 21.0661 71.982C20.8842 72.0869 20.6778 72.142 20.4678 72.1418ZM15.6214 53.728L7.50132 58.4162C7.22692 58.5722 6.90196 58.6134 6.59734 58.5307C6.29273 58.448 6.03319 58.2481 5.87536 57.9748C5.71754 57.7014 5.67424 57.3767 5.75492 57.0716C5.8356 56.7664 6.0337 56.5056 6.306 56.3459L14.4261 51.6578C14.5621 51.578 14.7125 51.526 14.8687 51.5046C15.0248 51.4833 15.1837 51.493 15.3361 51.5333C15.4885 51.5736 15.6314 51.6437 15.7567 51.7394C15.8819 51.8352 15.9869 51.9548 16.0657 52.0913C16.1446 52.2278 16.1956 52.3785 16.2159 52.5349C16.2362 52.6912 16.2254 52.85 16.1841 53.0021C16.1428 53.1543 16.0718 53.2967 15.9753 53.4213C15.8787 53.5459 15.7584 53.6501 15.6214 53.728ZM21.504 6.15729L27.437 16.4335C27.5155 16.5695 27.5665 16.7196 27.5869 16.8752C27.6074 17.0308 27.5971 17.189 27.5564 17.3406C27.5158 17.4922 27.4457 17.6344 27.3501 17.7589C27.2546 17.8834 27.1354 17.9879 26.9995 18.0664C26.8635 18.1449 26.7135 18.1958 26.5578 18.2163C26.4022 18.2368 26.244 18.2264 26.0924 18.1858C25.9408 18.1452 25.7987 18.0751 25.6741 17.9795C25.5496 17.884 25.4451 17.7648 25.3666 17.6289L19.4337 7.35261C19.3539 7.21662 19.3019 7.0662 19.2806 6.91001C19.2592 6.75383 19.2689 6.59496 19.3092 6.44256C19.3495 6.29016 19.4196 6.14723 19.5153 6.02201C19.6111 5.89679 19.7307 5.79174 19.8672 5.71292C20.0037 5.6341 20.1545 5.58306 20.3108 5.56274C20.4671 5.54242 20.6259 5.55323 20.778 5.59453C20.9302 5.63583 21.0726 5.70682 21.1972 5.8034C21.3218 5.89999 21.426 6.02026 21.504 6.15729Z" fill="#004AAD"/>
</svg>
