<svg width="21" height="18" viewBox="0 0 21 18" fill="none" xmlns="http://www.w3.org/2000/svg">
<path d="M1.02554 18H19.9745C20.7619 18 21.2527 17.1701 20.8641 16.5002L11.3846 0.50243C10.9857 -0.167477 10.004 -0.167477 9.61545 0.50243L0.135876 16.5002C-0.252715 17.1701 0.238136 18 1.02554 18ZM11.5277 15.0004H9.48251V13.0007H11.5277V15.0004ZM10.5051 11.001C9.94268 11.001 9.48251 10.551 9.48251 10.0011V8.00139C9.48251 7.45146 9.94268 7.00153 10.5051 7.00153C11.0675 7.00153 11.5277 7.45146 11.5277 8.00139V10.0011C11.5277 10.551 11.0675 11.001 10.5051 11.001Z" fill="#DA063F"/>
</svg>
