<svg width="77" height="78" viewBox="0 0 77 78" fill="none" xmlns="http://www.w3.org/2000/svg">
<path d="M23.4609 56.4956C22.6308 56.4956 21.957 57.1694 21.957 57.9995C21.957 58.8297 22.6308 59.5034 23.4609 59.5034C24.2911 59.5034 24.9648 58.8297 24.9648 57.9995C24.9648 57.1694 24.2911 56.4956 23.4609 56.4956Z" fill="#004AAD"/>
<path d="M67.6975 29.4251L76.5598 20.5628C76.7431 20.3795 76.8759 20.1519 76.9453 19.9022C77.0148 19.6525 77.0185 19.3891 76.9561 19.1375C76.8937 18.8859 76.7674 18.6547 76.5893 18.4664C76.4113 18.278 76.1876 18.1388 75.9399 18.0624L54.3589 11.4016C52.4134 5.14819 46.6312 0.851074 40.0039 0.851074C33.8433 0.851074 28.3336 4.60558 26.0533 10.2693L1.05622 18.0637C0.80912 18.1408 0.586085 18.2803 0.408698 18.4688C0.231311 18.6573 0.105577 18.8884 0.0436606 19.1397C-0.0182554 19.391 -0.0142575 19.6541 0.0552677 19.9034C0.124793 20.1527 0.257491 20.3799 0.440525 20.5629L9.536 29.6584L3.7995 39.2195C3.68366 39.4126 3.61266 39.6293 3.59175 39.8535C3.57084 40.0777 3.60055 40.3038 3.67868 40.515C3.75682 40.7262 3.88139 40.9172 4.0432 41.0738C4.20501 41.2305 4.39992 41.3488 4.61356 41.42L12.9336 44.1932V67.3236C12.9336 67.6297 13.0271 67.9286 13.2015 68.1802C13.3758 68.4318 13.6229 68.6242 13.9095 68.7317C18.9968 70.6392 37.8986 77.7283 38.0001 77.7643C38.3107 77.8744 38.6489 77.8792 38.9623 77.7777C38.9667 77.7762 38.9712 77.7753 38.9756 77.7738L66.0459 68.7503C66.3453 68.6505 66.6058 68.459 66.7903 68.2029C66.9749 67.9469 67.0742 67.6392 67.0742 67.3236V43.5739L75.947 40.7856C76.1937 40.7081 76.4162 40.5684 76.5931 40.3798C76.77 40.1912 76.8953 39.9602 76.9568 39.7091C77.0184 39.458 77.0142 39.1953 76.9447 38.9462C76.8751 38.6972 76.7425 38.4703 76.5597 38.2875L67.6975 29.4251ZM55.043 15.8901C55.043 15.508 55.0269 15.1268 54.9982 14.7467L72.6682 20.2006L65.1641 27.7045L52.9031 23.618C54.2915 21.2973 55.043 18.6194 55.043 15.8901ZM28.6234 11.9758C30.2929 7.12086 34.8664 3.85889 40.0039 3.85889C45.5385 3.85889 50.3386 7.60241 51.677 12.9623C51.9153 13.92 52.0356 14.9032 52.0352 15.8901C52.0352 18.6835 51.1082 21.3016 49.354 23.4626C47.0565 26.2963 43.6485 27.9214 40.0039 27.9214C36.0643 27.9214 32.3691 25.9877 30.1183 22.7473C28.7147 20.7312 27.9727 18.3599 27.9727 15.8901C27.9727 14.547 28.1915 13.23 28.6234 11.9758ZM4.32602 20.1948L25.125 13.7093C25.0192 14.4314 24.9657 15.1602 24.9649 15.89C24.9649 18.3114 25.5385 20.6568 26.6318 22.7729L11.8359 27.7045L4.32602 20.1948ZM7.3433 39.1593L12.0987 31.2334L36.2458 39.2825L31.4906 47.2084L7.3433 39.1593ZM36.9961 74.177L15.9414 66.2815V45.1959C32.507 50.6884 31.698 50.5207 32.1593 50.5207C32.6763 50.5207 33.1714 50.2532 33.4492 49.7904L36.9961 43.8784V74.177ZM38.5 36.8635L16.1857 29.4254L28.3363 25.3754C31.1802 28.8716 35.4614 30.9292 40.0039 30.9292C44.2062 30.9292 48.1556 29.1999 50.9963 26.1529L60.8144 29.4253L38.5 36.8635ZM64.0664 66.2397L40.0039 74.2605V42.7356L45.3354 49.3994C45.5249 49.6362 45.7814 49.8101 46.0715 49.8985C46.3615 49.9869 46.6714 49.9855 46.9607 49.8947L64.0664 44.5192V66.2397ZM47.041 46.7168L41.0218 39.1933L65.1641 31.1459L72.6783 38.66L47.041 46.7168Z" fill="#004AAD"/>
<path d="M33.0131 59.8334L29.6684 58.5791C28.8907 58.2876 28.0239 58.6815 27.7321 59.4592C27.4405 60.237 27.8346 61.1039 28.6122 61.3955L31.9569 62.6497C32.7362 62.9418 33.602 62.546 33.8932 61.7696C34.1848 60.992 33.7908 60.125 33.0131 59.8334ZM33.013 66.258L23.9895 62.8743C23.2118 62.5826 22.345 62.9767 22.0532 63.7543C21.7615 64.532 22.1557 65.399 22.9333 65.6906L31.9568 69.0744C32.1255 69.138 32.3043 69.1706 32.4846 69.1707C33.0936 69.1707 33.6666 68.7981 33.893 68.1943C34.1848 67.4165 33.7908 66.5496 33.013 66.258ZM48.5876 10.3145C48.0003 9.72711 47.048 9.72726 46.4606 10.3145L38.5006 18.2747L36.5562 16.3303C35.9689 15.743 35.0166 15.743 34.4292 16.3303C33.8418 16.9176 33.8419 17.8699 34.4292 18.4573L37.4371 21.4649C38.0244 22.0522 38.9767 22.0522 39.5641 21.4649L48.5876 12.4415C49.1748 11.8542 49.1748 10.902 48.5876 10.3145Z" fill="#004AAD"/>
</svg>
